<?xml version="1.0" encoding="UTF-8"?>
<svg version="1.1" xmlns="http://www.w3.org/2000/svg" width="1254" height="1254">
<path d="M0 0 C413.82 0 827.64 0 1254 0 C1254 413.82 1254 827.64 1254 1254 C840.18 1254 426.36 1254 0 1254 C0 840.18 0 426.36 0 0 Z " fill="#FDFDFD" transform="translate(0,0)"/>
<path d="M0 0 C1.48306641 0.76763672 1.48306641 0.76763672 2.99609375 1.55078125 C23.35487407 12.64353672 39.27230353 31.10486 47 53 C47.26296875 53.66257812 47.5259375 54.32515625 47.796875 55.0078125 C49.71193402 59.8345429 51.06501305 64.74873382 52.3515625 69.77734375 C52.79314971 71.95340752 52.79314971 71.95340752 54 73 C54.54965538 75.79009851 55.04369415 78.56939672 55.5 81.375 C55.63019531 82.13683594 55.76039063 82.89867187 55.89453125 83.68359375 C57.90942075 95.87469282 58.14561263 107.90981167 58.16866493 120.23703384 C58.17592187 123.31750226 58.19165565 126.39781961 58.21000671 129.47824097 C58.26204328 138.22993892 58.31037839 146.9815491 58.32592773 155.73339844 C58.33609736 161.1084875 58.36563978 166.48318625 58.40724754 171.85811996 C58.41942845 173.88711449 58.42470287 175.91616441 58.42244911 177.94519424 C58.41186313 190.5858768 59.61995256 201.8219524 63 214 C63.35150957 215.66292811 63.69335403 217.32821738 64 219 C64.66 219 65.32 219 66 219 C70 224.41176471 70 224.41176471 70 227 C70.56460937 227.27585937 71.12921875 227.55171875 71.7109375 227.8359375 C73.23782634 228.61240998 74.74410494 229.4307976 76.2265625 230.2890625 C82.26666169 233.65341742 87.10271131 235.16558832 94 234 C98.80473002 232.61820173 102.83917129 230.9718566 106.6875 227.75 C109 226 109 226 112.4375 225.5 C116.60180893 226.08446441 118.75471649 227.37286573 122 230 C123.6214099 233.24281979 123.41273254 236.48551992 123 240 C118.86261428 251.82110207 107.92597382 261.47083963 97 267 C96.01128906 267.5053125 95.02257812 268.010625 94.00390625 268.53125 C80.87667404 274.20448361 63.33925856 274.44171903 49.96875 269.375 C29.57506665 259.92950456 16.8773638 246.33573812 9 225 C8.19132964 222.65450589 7.40759285 220.30803083 6.67578125 217.9375 C5.29641409 213.68403046 5.29641409 213.68403046 2 211 C-2.62365191 210.60653979 -2.62365191 210.60653979 -6.9375 212 C-8.99114887 215.865692 -8.43873339 220.2746084 -7.39086914 224.39550781 C-6.52486759 227.00812962 -5.57246 229.56457437 -4.5625 232.125 C-4.021698 233.50933228 -4.021698 233.50933228 -3.4699707 234.92163086 C1.40519978 246.96314452 10.02661714 263.91617384 22.12367249 270.08251953 C24.7452442 272.76158943 24.48655444 274.78201469 24.53100586 278.43222046 C24.52133789 279.3143924 24.51166992 280.19656433 24.50170898 281.10546875 C24.50981346 282.50341171 24.50981346 282.50341171 24.51808167 283.92959595 C24.53060783 287.01588519 24.51405191 290.10124866 24.49609375 293.1875 C24.49624865 295.32836964 24.49773608 297.46923957 24.50050354 299.61010742 C24.50188928 304.09924703 24.48930004 308.58806781 24.46655273 313.07714844 C24.4381678 318.83776429 24.4409032 324.59785018 24.45364285 330.35850525 C24.46059052 334.77995345 24.45282114 339.20127868 24.44038582 343.62271118 C24.43586246 345.747035 24.4355422 347.87137198 24.43945122 349.99569702 C24.44235448 352.96225139 24.42589866 355.92806976 24.40405273 358.89453125 C24.41080521 360.21778915 24.41080521 360.21778915 24.41769409 361.56777954 C24.40778946 362.37532684 24.39788483 363.18287415 24.38768005 364.01489258 C24.38403521 365.06680534 24.38403521 365.06680534 24.38031673 366.13996887 C23.87473243 368.61265142 23.00354758 369.49826597 21 371 C18.21554949 371.28575138 15.65654339 371.38923159 12.87255859 371.35644531 C11.63073067 371.35951187 11.63073067 371.35951187 10.36381531 371.36264038 C7.62513199 371.3656506 4.88704932 371.3471667 2.1484375 371.328125 C0.24940134 371.32506816 -1.64963706 371.32319147 -3.54867554 371.32244873 C-7.52830586 371.31784442 -11.50773397 371.30341164 -15.48730469 371.28125 C-20.60004375 371.25292909 -25.71262368 371.24203487 -30.82543373 371.2375679 C-34.74579474 371.23342078 -38.66612326 371.22360988 -42.58646774 371.21169281 C-44.47241326 371.20597826 -46.35836193 371.2012235 -48.24431229 371.19742584 C-50.87338058 371.19058653 -53.50232013 371.17696636 -56.13134766 371.16113281 C-56.91785202 371.16001495 -57.70435638 371.15889709 -58.51469421 371.15774536 C-63.88531162 371.11468838 -63.88531162 371.11468838 -65 370 C-65.16655123 368.65470675 -65.27577742 367.30220237 -65.359375 365.94921875 C-66.5419264 349.6550701 -70.01479931 337.28270113 -82.25 325.75 C-86.64084794 322.17374376 -91.79391494 320.11929127 -97 318 C-98.09441406 317.44892578 -98.09441406 317.44892578 -99.2109375 316.88671875 C-109.69609039 313.55320375 -123.3926188 314.90845904 -133.2734375 319.453125 C-145.62542627 326.46084356 -153.63438897 336.23972803 -158.25 349.625 C-159.33679671 354.53082067 -159.43835835 359.62299558 -159.65917969 364.62939453 C-159.90233402 369.90233402 -159.90233402 369.90233402 -161 371 C-164.1194182 371.11668511 -167.21697833 371.16803883 -170.33740234 371.17700195 C-171.31784012 371.18357315 -172.29827789 371.19014435 -173.3084259 371.19691467 C-176.56759711 371.21669913 -179.82672216 371.22832085 -183.0859375 371.23828125 C-184.7503784 371.24439454 -184.7503784 371.24439454 -186.44844437 371.25063133 C-192.31979437 371.2715127 -198.19112085 371.28580623 -204.0625 371.29516602 C-210.14153925 371.30624302 -216.2202137 371.34065215 -222.29912376 371.38033772 C-226.96073103 371.40642223 -231.62225026 371.41485051 -236.2839241 371.41844749 C-238.52550346 371.42333355 -240.76707838 371.43500438 -243.00858688 371.45348549 C-246.14062563 371.47770633 -249.27170584 371.47694322 -252.40380859 371.4699707 C-253.80191017 371.48918579 -253.80191017 371.48918579 -255.22825623 371.50878906 C-261.36674622 371.45879008 -261.36674622 371.45879008 -264.07550049 369.49630737 C-265.41697451 365.87409726 -265.41720232 362.39886533 -265.38818359 358.58911133 C-265.39344055 357.74110962 -265.39869751 356.89310791 -265.40411377 356.01940918 C-265.41734243 353.20676355 -265.4085491 350.39468305 -265.3984375 347.58203125 C-265.40046133 345.60739535 -265.40337533 343.63276019 -265.40713501 341.65812683 C-265.41156546 337.50272563 -265.40511856 333.34751744 -265.39111328 329.19213867 C-265.37425283 323.94071036 -265.38398597 318.68974569 -265.40144253 313.43833447 C-265.52082758 271.12029819 -264.50817303 222.98695757 -237 188 C-234.02101669 190.82773251 -231.65499017 193.75613574 -229.3125 197.125 C-225.24412403 202.79652784 -220.78003518 207.92230695 -216 213 C-215.46117187 213.60328125 -214.92234375 214.2065625 -214.3671875 214.828125 C-199.68937705 230.61230307 -175.04569857 243.1969766 -153.41748047 244.10888672 C-150.46507273 244.17006866 -147.51551855 244.18560095 -144.5625 244.1875 C-143.56412109 244.19974609 -142.56574219 244.21199219 -141.53710938 244.22460938 C-124.39140328 244.25842734 -108.24853112 237.07169391 -95.8125 225.375 C-82.15811282 210.92122622 -74.4533205 190.36076732 -74.7265625 170.46875 C-74.84896565 167.84291508 -74.84896565 167.84291508 -76.5625 165.3125 C-79.95166172 163.48756676 -82.21296682 163.44915881 -86 164 C-89.37363142 167.24602361 -89.55077993 170.53754369 -90 175.0625 C-92.05867776 192.75859537 -98.25643736 208.0190734 -112.08203125 219.76953125 C-125.59516192 229.67247487 -140.83192275 230.61960982 -157 229 C-162.63691406 228.09394387 -167.79112412 226.29752215 -173 224 C-173.68562012 223.6999707 -174.37124023 223.39994141 -175.07763672 223.09082031 C-183.47767799 219.3254831 -191.07260044 215.12858789 -198 209 C-198.79535156 208.33484375 -199.59070313 207.6696875 -200.41015625 206.984375 C-211.46564749 197.4838292 -219.30474616 186.80576936 -226 174 C-226.33652588 173.37875244 -226.67305176 172.75750488 -227.01977539 172.11743164 C-229.61020713 167.19774212 -231.27186407 162.30417125 -232.6875 156.9375 C-233.00557617 155.7918457 -233.00557617 155.7918457 -233.33007812 154.62304688 C-239.52669638 131.77179535 -236.38257017 107.68219312 -225 87 C-215.86112619 71.80991942 -203.8419522 60.87829903 -188.125 52.75 C-187.50165771 52.42056396 -186.87831543 52.09112793 -186.23608398 51.75170898 C-176.37127809 46.83502033 -166.16978887 45.44029774 -155.25 45.5 C-154.12271484 45.50136963 -152.99542969 45.50273926 -151.83398438 45.50415039 C-141.81873505 45.68688426 -133.0148278 47.4925861 -124 52 C-120.80799279 52.27756584 -118.5929092 52.24964598 -115.625 51 C-113.43784986 48.30812291 -113.52002666 46.32175925 -113.46875 42.9375 C-114.25286477 40.07778729 -115.44127394 39.47900885 -118 38 C-120.58292843 37.02453235 -123.12097664 36.13500164 -125.75 35.3125 C-126.44738281 35.08755859 -127.14476562 34.86261719 -127.86328125 34.63085938 C-129.57332344 34.08036634 -131.28637529 33.53923763 -133 33 C-133 27.17778213 -129.87839587 25.0641428 -126 21 C-125.40960937 20.34644531 -124.81921875 19.69289063 -124.2109375 19.01953125 C-118.5329257 12.96701229 -111.90740214 8.50446345 -105 4 C-104.15308594 3.43023437 -103.30617188 2.86046875 -102.43359375 2.2734375 C-95.71674868 -2.04216312 -88.56968576 -4.55507851 -81 -7 C-79.59621094 -7.46599609 -79.59621094 -7.46599609 -78.1640625 -7.94140625 C-53.25797711 -15.87303652 -22.84216074 -12.45097591 0 0 Z " fill="#FCFCFC" transform="translate(666,362)"/>
<path d="M0 0 C1.83111328 -0.01836914 1.83111328 -0.01836914 3.69921875 -0.03710938 C33.16028825 -0.08387298 59.21711332 11.42141428 80.75 31.1875 C81.55050781 31.90550781 82.35101562 32.62351562 83.17578125 33.36328125 C94.95946504 44.47719971 104.54007826 58.84844719 109.6953125 74.19140625 C110.61023078 76.79045189 111.6326725 79.28945865 112.69921875 81.828125 C114.87474521 87.24532664 116.24274489 92.67014039 117.4375 98.375 C117.64955078 99.28185547 117.86160156 100.18871094 118.08007812 101.12304688 C121.74914956 118.42671182 120.81434949 136.64446356 120.92578125 154.24609375 C120.93482514 155.59559018 120.93482514 155.59559018 120.94405174 156.97234917 C120.96260783 159.74393262 120.98050044 162.51551935 120.99804688 165.28710938 C121.00393231 166.21598748 121.00981775 167.14486559 121.01588154 168.10189152 C121.04454699 172.85301374 121.06621054 177.60402398 121.07592773 182.35522461 C121.08610054 187.03094604 121.115617 191.70621886 121.15724754 196.38176155 C121.16938833 198.13526052 121.17471055 199.88882305 121.17244911 201.64236259 C121.15842039 216.03896602 121.8990483 232.59189237 131.4375 244.25 C135.21504585 245.78143751 138.91653971 245.47772612 142.75 244.1875 C145.24025168 242.5687569 146.92429421 241.44680132 148.75 239.1875 C149.33487193 236.08856808 149.53178436 233.77455286 149.45947266 230.68457031 C149.4657795 229.41768875 149.4657795 229.41768875 149.47221375 228.12521362 C149.47991249 225.33795303 149.44634218 222.55268337 149.4140625 219.765625 C149.4151568 217.82134573 149.41946727 215.87706585 149.42684937 213.93280029 C149.44026002 208.81337809 149.42142889 203.69465735 149.39239502 198.57531738 C149.34705356 190.39635494 149.3314915 182.21777749 149.35194016 174.03871918 C149.35156903 171.19073117 149.32585969 168.34374654 149.29824829 165.49591064 C149.29756281 163.73327646 149.29786771 161.97064153 149.29931641 160.20800781 C149.27763145 159.03402939 149.27763145 159.03402939 149.25550842 157.83633423 C149.3033003 151.0385025 151.3116405 145.09123228 155.71484375 139.84765625 C156.36582031 139.32042969 157.01679687 138.79320312 157.6875 138.25 C158.33589844 137.70472656 158.98429687 137.15945313 159.65234375 136.59765625 C164.72771406 133.18572202 169.34430637 132.9133019 175.33203125 132.9921875 C176.55329964 132.99643234 176.55329964 132.99643234 177.79924011 133.00076294 C180.387146 133.01191416 182.97469958 133.03700917 185.5625 133.0625 C187.32226061 133.07253635 189.08202667 133.08166106 190.84179688 133.08984375 C195.14466598 133.1118369 199.44727336 133.14633164 203.75 133.1875 C203.73324219 132.08664062 203.71648437 130.98578125 203.69921875 129.8515625 C203.78547668 123.62772076 206.51318293 118.73909303 210.58203125 114.09765625 C218.39593825 106.8077588 225.52174285 105.54821552 236.11328125 105.76953125 C243.58007816 106.62769158 248.97634188 110.48563058 253.75 116.1875 C256.98377627 120.3675233 258.78043171 123.53302917 259.31347656 128.84082031 C259.39712463 129.65399719 259.48077271 130.46717407 259.56695557 131.30499268 C259.65756256 132.2368338 259.65756256 132.2368338 259.75 133.1875 C260.85923828 133.16655273 261.96847656 133.14560547 263.11132812 133.12402344 C267.25605179 133.05121533 271.40071976 133.00555305 275.54589844 132.96777344 C277.33440684 132.94775041 279.12285054 132.92052346 280.91113281 132.88574219 C283.49300162 132.83681045 286.0739995 132.81443835 288.65625 132.796875 C289.84112 132.76590729 289.84112 132.76590729 291.04992676 132.73431396 C297.76874108 132.73164367 302.82020654 134.75791518 307.9921875 139.046875 C308.53101563 139.67078125 309.06984375 140.2946875 309.625 140.9375 C310.45644531 141.85789062 310.45644531 141.85789062 311.3046875 142.796875 C315.56309992 149.84051932 315.04661514 158.04419191 315.04052734 165.99414062 C315.05060318 167.89319405 315.05060318 167.89319405 315.06088257 169.83061218 C315.07845058 173.28306446 315.08323387 176.73541742 315.08451414 180.18791008 C315.0859409 182.34890129 315.09022026 184.50986765 315.09550858 186.67085266 C315.11397448 194.22085154 315.12218303 201.77078007 315.12060547 209.32080078 C315.1194032 216.34187693 315.14053086 223.36264611 315.1720928 230.38364458 C315.19828979 236.42805686 315.20897142 242.47236902 315.20769465 248.5168376 C315.20718626 252.11984045 315.21280154 255.72256982 315.23405075 259.32551575 C315.2571087 263.34417575 315.24789148 267.36215126 315.23583984 271.38085938 C315.24707886 272.56447556 315.25831787 273.74809174 315.26989746 274.96757507 C315.20473554 283.52502539 313.26211977 288.45520777 308.5625 295.4375 C303.29034441 300.59249658 296.0996243 303.30749985 288.75332642 303.32121277 C287.2055677 303.32761024 287.2055677 303.32761024 285.62654114 303.33413696 C283.92929146 303.33345718 283.92929146 303.33345718 282.19775391 303.33276367 C281.00565811 303.33612228 279.81356232 303.3394809 278.58534241 303.34294128 C275.31461759 303.35082081 272.04393084 303.3541193 268.77319765 303.35475707 C266.72935368 303.35546778 264.68551636 303.3576025 262.64167404 303.36025429 C255.51013517 303.36950711 248.37861499 303.37358929 241.24707031 303.37280273 C234.60160571 303.37220209 227.95622232 303.38275147 221.31077826 303.3985464 C215.60367661 303.41162721 209.89660148 303.4169864 204.18948495 303.41634732 C200.78164527 303.41609248 197.37387775 303.41893628 193.96605301 303.42952538 C190.16431149 303.43930205 186.36277992 303.43645624 182.56103516 303.43041992 C181.43358383 303.43603943 180.30613251 303.44165894 179.14451599 303.44744873 C177.58829781 303.441157 177.58829781 303.441157 176.00064087 303.43473816 C175.10210199 303.43528293 174.20356312 303.43582769 173.27779579 303.43638897 C170.46904921 303.15983734 168.33388442 302.28828789 165.75 301.1875 C161.78109711 301.47215492 158.5740941 303.97808601 155.25 306 C137.35535258 316.55850056 117.01576164 317.76491671 97.08081055 312.78637695 C93.75998093 311.89070035 90.79140524 310.77356233 87.75 309.1875 C87.76110306 310.28251328 87.77220612 311.37752655 87.78364563 312.50572205 C87.88520558 322.84827569 87.96005359 333.19072756 88.00906086 343.53366756 C88.03510355 348.85053808 88.07040432 354.16700456 88.12719727 359.48364258 C88.18170693 364.61893726 88.21146058 369.75384444 88.22438622 374.8894062 C88.23359211 376.8441636 88.25156913 378.79890088 88.27865028 380.75349236 C88.54926239 401.10277215 88.54926239 401.10277215 81.23603821 408.77598572 C77.27790342 412.38388106 73.90437156 413.30241238 68.70278931 413.33467102 C67.90661697 413.34182632 67.11044464 413.34898163 66.29014587 413.35635376 C65.42563309 413.35904266 64.5611203 413.36173157 63.67041016 413.36450195 C62.7528746 413.37107315 61.83533905 413.37764435 60.88999939 413.38441467 C57.8563529 413.40411152 54.82275577 413.41580069 51.7890625 413.42578125 C50.23365816 413.43189454 50.23365816 413.43189454 48.64683151 413.43813133 C43.16104075 413.45897414 37.67527489 413.47328503 32.18945312 413.48266602 C26.52443381 413.49374182 20.85980604 413.52816054 15.19492531 413.56783772 C10.8368761 413.59397654 6.47892073 413.60235531 2.12080002 413.60594749 C0.03241702 413.61081853 -2.05596164 413.62244717 -4.14426804 413.64098549 C-7.06703591 413.66532403 -9.98878298 413.66442174 -12.91162109 413.6574707 C-14.20231758 413.67668579 -14.20231758 413.67668579 -15.51908875 413.69628906 C-20.90843131 413.64961651 -23.98633174 412.7871152 -28.25 409.1875 C-31.51022112 404.86990987 -33.35408966 401.50620744 -33.390625 396.08984375 C-33.57610553 386.77439006 -33.73239732 379.08394934 -39.25 371.1875 C-39.806875 370.28 -40.36375 369.3725 -40.9375 368.4375 C-47.30524679 362.24185448 -55.58374986 357.92018418 -64.5 357.8125 C-70.64663525 357.92337504 -75.01781556 359.00442201 -80.25 362.1875 C-80.94867187 362.6 -81.64734375 363.0125 -82.3671875 363.4375 C-88.61737912 367.58857066 -93.18574519 373.6035109 -94.8984375 380.98046875 C-95.24013268 384.09748809 -95.34024702 387.17045534 -95.38769531 390.30419922 C-95.54900538 397.41607523 -96.05468863 402.67158866 -100.484375 408.5234375 C-105.96628434 413.69001577 -110.75543737 413.62822237 -117.97192383 413.60742188 C-119.05220352 413.61589142 -120.13248322 413.62436096 -121.24549866 413.63308716 C-124.81612936 413.65648276 -128.38632969 413.65747854 -131.95703125 413.65625 C-134.44178947 413.66335082 -136.92654606 413.6710497 -139.41130066 413.67932129 C-144.62068233 413.69277262 -149.82991245 413.69433222 -155.03930664 413.68847656 C-161.70753542 413.6811125 -168.37492368 413.71314763 -175.04304981 413.75359344 C-180.17583621 413.77947483 -185.30844725 413.78234731 -190.4412899 413.77870178 C-192.89922605 413.7803931 -195.35717029 413.79003663 -197.8150425 413.80784607 C-201.25715152 413.83003928 -204.69778757 413.82032962 -208.13989258 413.80273438 C-209.15055786 413.81599762 -210.16122314 413.82926086 -211.20251465 413.84292603 C-217.79349228 413.76484493 -222.13801886 412.42888796 -227.25 408.1875 C-229.08984375 406.08984375 -229.08984375 406.08984375 -230.1875 404.125 C-230.56777344 403.47402344 -230.94804687 402.82304688 -231.33984375 402.15234375 C-233.47192548 397.54960938 -233.40388055 393.03959506 -233.41113281 388.03955078 C-233.41609772 387.21908768 -233.42106262 386.39862457 -233.42617798 385.55329895 C-233.44080827 382.82979483 -233.44761354 380.10634954 -233.453125 377.3828125 C-233.45595238 376.44202724 -233.45877975 375.50124199 -233.46169281 374.53194809 C-233.47671147 369.52422557 -233.48591591 364.51653189 -233.49023438 359.50878906 C-233.49457086 355.42438585 -233.50826758 351.34019964 -233.53125 347.25585938 C-234.13577307 237.65301439 -234.13577307 237.65301439 -200.53125 203.4375 C-200.0465625 202.98375 -199.561875 202.53 -199.0625 202.0625 C-197.00187561 199.45373725 -197.00187561 199.45373725 -197.4765625 197.09375 C-197.98741905 195.27487612 -198.54829114 193.46977601 -199.140625 191.67578125 C-208.5252378 162.16712198 -204.84045167 133.66966409 -190.875 106.375 C-187.57280666 100.43978025 -183.68100969 95.31581998 -179.25 90.1875 C-178.68539062 89.49011719 -178.12078125 88.79273438 -177.5390625 88.07421875 C-164.41964131 72.21388562 -142.77974242 59.99683317 -122.25 57.1875 C-116.24948491 56.88146986 -110.25259669 57.0074221 -104.25 57.1875 C-103.84587891 56.07568359 -103.84587891 56.07568359 -103.43359375 54.94140625 C-94.1933105 33.4417373 -68.80934945 17.52570514 -48.375 8.4375 C-43.37908049 6.47189233 -38.28186179 4.91636071 -33.125 3.4375 C-32.39684082 3.22641602 -31.66868164 3.01533203 -30.91845703 2.79785156 C-20.73384996 0.01462262 -10.50064045 0.00547479 0 0 Z M-82.03515625 51.609375 C-84.18226478 54.10865478 -85.25838686 56.07260224 -86.25 59.1875 C-85.13625 59.6 -84.0225 60.0125 -82.875 60.4375 C-81.3325217 61.01868379 -79.79093646 61.60224048 -78.25 62.1875 C-77.363125 62.52394531 -76.47625 62.86039062 -75.5625 63.20703125 C-74.675625 63.55121094 -73.78875 63.89539063 -72.875 64.25 C-72.04226563 64.57097656 -71.20953125 64.89195312 -70.3515625 65.22265625 C-68.25 66.1875 -68.25 66.1875 -66.25 68.1875 C-65.56803279 75.34815574 -65.56803279 75.34815574 -67.875 78.1875 C-71.75796534 79.82243277 -74.58845444 79.78130739 -78.578125 78.35546875 C-80.22629752 77.68052694 -81.86533913 76.98264593 -83.4921875 76.2578125 C-98.65203016 70.3742475 -119.3306319 70.76765069 -134.25 77.1875 C-135.21123779 77.59814697 -135.21123779 77.59814697 -136.19189453 78.01708984 C-145.65858762 82.15302372 -153.60947955 87.15357492 -161.25 94.1875 C-161.86875 94.71472656 -162.4875 95.24195313 -163.125 95.78515625 C-177.41785789 108.72151606 -187.14654525 130.54794233 -188.40966797 149.59521484 C-188.93204858 161.15478257 -188.27220426 171.97906422 -185.25 183.1875 C-184.99476563 184.17363281 -184.73953125 185.15976562 -184.4765625 186.17578125 C-177.30319578 210.49283633 -159.56902319 232.98028939 -137.484375 245.359375 C-133.48932031 247.49561952 -129.40756053 249.39082562 -125.25 251.1875 C-124.62673828 251.46142578 -124.00347656 251.73535156 -123.36132812 252.01757812 C-109.32945332 257.94214749 -91.96003002 258.88455591 -77.4375 254.1875 C-61.14976874 247.15326083 -51.71980822 235.23137645 -45.25 219.1875 C-42.96084296 212.06043375 -41.92577518 204.99543741 -41.65625 197.52734375 C-41.15769059 194.65583332 -40.27903275 193.26361007 -38.25 191.1875 C-34.46296682 190.63665881 -32.20166172 190.67506676 -28.8125 192.5 C-24.74123064 199.50258331 -27.46333268 208.98976356 -29.2109375 216.4375 C-34.51214168 235.56966545 -43.47465243 252.42058894 -61.25 262.625 C-72.8947539 269.01221663 -83.2711912 271.36648913 -96.4375 271.375 C-97.41525391 271.38724609 -98.39300781 271.39949219 -99.40039062 271.41210938 C-126.11206059 271.46507369 -150.62690009 257.76558973 -169.375 239.5 C-174.92025277 233.9464981 -179.47643056 227.75315086 -183.97265625 221.33984375 C-185.66558642 218.9964567 -187.19501531 217.15970883 -189.25 215.1875 C-213.10422252 245.52708927 -217.58140095 287.44958914 -217.55078125 324.7109375 C-217.55467965 326.71587206 -217.55901662 328.7208058 -217.56376648 330.72573853 C-217.57115532 334.88554596 -217.57098691 339.04526833 -217.56567383 343.20507812 C-217.55982233 348.53578915 -217.57698086 353.86615909 -217.6000185 359.19681358 C-217.61471996 363.31800364 -217.61563359 367.43911018 -217.61250877 371.56032181 C-217.61302162 373.52753003 -217.61825248 375.49474298 -217.62832069 377.46192551 C-217.64062736 380.1966913 -217.63393357 382.93077293 -217.62231445 385.66552734 C-217.62995819 386.47378464 -217.63760193 387.28204193 -217.64547729 388.11479187 C-217.6166837 391.17371313 -217.38895811 393.81084161 -216.32649231 396.69075012 C-212.78305511 399.24488392 -208.90123269 398.71584602 -204.65380859 398.6574707 C-203.17789497 398.6607563 -203.17789497 398.6607563 -201.67216492 398.66410828 C-198.41391599 398.66642331 -195.15656623 398.64014433 -191.8984375 398.61328125 C-189.64067878 398.60835993 -187.382916 398.60505937 -185.12515259 398.60331726 C-180.39222196 398.5956707 -175.65959304 398.57508731 -170.92675781 398.54418945 C-164.84547425 398.50456898 -158.76438704 398.48657466 -152.68298912 398.47688007 C-146.90061171 398.46692881 -141.11828284 398.44701911 -135.3359375 398.42578125 C-133.66921556 398.42068763 -133.66921556 398.42068763 -131.96882248 398.4154911 C-128.84162292 398.40397207 -125.71455111 398.38546107 -122.58740234 398.36450195 C-121.18322807 398.3604686 -121.18322807 398.3604686 -119.75068665 398.35635376 C-115.67697277 398.73446046 -115.67697277 398.73446046 -112.25 397.1875 C-112.15458465 395.4827457 -112.06562772 393.77735645 -112.01123047 392.07080078 C-111.48213189 376.76198154 -107.300633 364.70737746 -96.0625 353.9375 C-84.19707009 343.88654305 -71.94600235 342.05471383 -56.96044922 342.87939453 C-45.83026521 344.1445983 -35.35003015 350.71453584 -28.25 359.1875 C-21.89866535 368.39990316 -19.09708796 376.46630255 -18.1875 387.5 C-18.03389932 389.30893362 -17.87655507 391.11755464 -17.71484375 392.92578125 C-17.61610962 394.11747925 -17.61610962 394.11747925 -17.51538086 395.33325195 C-17.43735842 397.20007276 -17.43735842 397.20007276 -16.25 398.1875 C-13.61876152 398.29857201 -11.01352407 398.3448917 -8.38134766 398.34863281 C-7.55696701 398.35359772 -6.73258636 398.35856262 -5.88322449 398.36367798 C-3.14349548 398.3783382 -0.40382436 398.38510805 2.3359375 398.390625 C4.23304243 398.39637336 6.13014733 398.40213113 8.0272522 398.40789795 C12.0103584 398.41841899 15.99344435 398.4242544 19.9765625 398.42773438 C25.08700713 398.43322085 30.19718554 398.45724748 35.30754662 398.48570633 C39.22798449 398.50430633 43.14835793 398.5095369 47.06883621 398.51107025 C48.95314616 398.51410338 50.8374548 398.52215403 52.72172165 398.53525543 C55.35554139 398.55226074 57.98870663 398.55044932 60.62255859 398.54394531 C61.4050145 398.5531601 62.1874704 398.56237488 62.99363708 398.5718689 C66.97877872 398.62023078 66.97877872 398.62023078 70.44621563 396.91023636 C72.77357248 393.83501751 72.2465231 389.92627788 72.28100586 386.20898438 C72.31057625 384.83031693 72.31057625 384.83031693 72.34074402 383.42379761 C72.39995867 380.37627422 72.43493994 377.32919535 72.46484375 374.28125 C72.47707033 373.23860489 72.48929691 372.19595978 72.501894 371.12171936 C72.56449767 365.59776594 72.60738396 360.0740362 72.63549805 354.54980469 C72.66861315 348.86028623 72.77169354 343.17431441 72.89101315 337.48604584 C72.96972672 333.09856957 72.99459177 328.71192687 73.00534248 324.32380676 C73.01989834 322.22817661 73.05462516 320.1325803 73.11045647 318.03764343 C73.82134981 306.04364575 73.82134981 306.04364575 69.10266113 295.51118469 C66.23915314 292.6749165 63.06169926 290.46959905 59.75 288.1875 C52.15016163 280.25700361 47.56606339 270.33584358 43.75 260.1875 C43.3375 259.18332031 42.925 258.17914062 42.5 257.14453125 C40.29874395 251.60317486 39.00390625 247.15625003 39.75 241.1875 C40.8125 239.1875 40.8125 239.1875 42.75 238.1875 C47.11706908 237.79758312 49.05513897 237.72425931 52.75 240.1875 C53.5234375 241.89453125 53.5234375 241.89453125 54.125 244 C58.79917775 259.06393037 64.65798008 270.86559365 75.75 282.1875 C76.34167969 282.81527344 76.93335938 283.44304687 77.54296875 284.08984375 C81.76801641 288.20296962 86.53380285 290.85265261 91.75 293.5 C92.41459229 293.83789551 93.07918457 294.17579102 93.76391602 294.52392578 C106.72164198 300.81563046 123.76709047 301.91433403 137.51538086 297.44433594 C150.57070748 292.46567773 162.40269978 283.38417172 169.3125 271.0625 C171.1356467 266.88445549 171.41749463 263.71163026 170.75 259.1875 C167.69142049 255.40452008 165.50471103 253.438173 160.6875 252.75 C155.92576727 253.27908141 153.68754946 254.99175763 149.8671875 257.71875 C144.39189769 261.51710603 138.23255281 262.14752615 131.75 261.1875 C128.21989855 259.82704543 125.01858329 258.07983769 121.75 256.1875 C121.0178125 255.84203125 120.285625 255.4965625 119.53125 255.140625 C117.17831737 253.88159965 116.75295405 252.62324554 115.75 250.1875 C115.37875 249.445 115.0075 248.7025 114.625 247.9375 C114.33625 247.36 114.0475 246.7825 113.75 246.1875 C113.09 246.1875 112.43 246.1875 111.75 246.1875 C111.62684418 245.51614517 111.50368835 244.84479034 111.37680054 244.15309143 C110.92200126 242.00129234 110.38382429 239.86658535 109.79629517 237.74717712 C106.54882269 225.89800453 106.17828665 214.60884938 106.2109375 202.37890625 C106.200997 200.31639072 106.18904327 198.25388403 106.17520142 196.19139099 C106.14311529 190.80455706 106.13247384 185.4179259 106.12835693 180.03100586 C106.11954404 171.41744613 106.083515 162.80405072 106.0361824 154.19062614 C106.02381127 151.21869754 106.02433618 148.24698819 106.02645874 145.27503967 C105.98952324 127.9998877 105.38533331 109.85429742 99.53125 93.43359375 C98.6984395 91.03926355 98.00389656 88.62617591 97.3125 86.1875 C89.83851066 61.27420219 72.20105272 40.76685869 49.75 28.1875 C48.93015625 27.71570313 48.1103125 27.24390625 47.265625 26.7578125 C32.46247221 18.76013599 16.01183986 15.83416559 -0.625 15.9375 C-1.8625 15.92976563 -3.1 15.92203125 -4.375 15.9140625 C-35.59061825 15.97977959 -60.2737513 30.25384991 -82.03515625 51.609375 Z " fill="#070606" transform="translate(618.25,334.8125)"/>
<path d="M0 0 C1.74702355 -0.02661513 3.49388968 -0.06755036 5.24023438 -0.12304688 C7.76211851 -0.2022359 10.28100964 -0.23530944 12.80395508 -0.25878906 C13.96982903 -0.30827698 13.96982903 -0.30827698 15.15925598 -0.35876465 C20.50738775 -0.33909741 20.50738775 -0.33909741 22.87945557 2.00588989 C24.21435547 3.89599609 24.21435547 3.89599609 25.31288147 5.78384399 C26.64159233 8.00471731 28.21140428 9.06733707 30.44067383 10.33496094 C31.10325195 10.72425781 31.76583008 11.11355469 32.44848633 11.51464844 C38.9307094 14.79644338 47.37122906 14.46164231 54.28442383 12.70605469 C58.83966667 10.95667679 62.83155167 8.9440831 66.31567383 5.45996094 C66.67935059 4.60539307 67.04302734 3.7508252 67.41772461 2.87036133 C69.31567383 0.45996094 69.31567383 0.45996094 73.06518555 -0.17114258 C74.62502326 -0.197404 76.18551674 -0.19479513 77.74536133 -0.16894531 C78.98638107 -0.17256325 78.98638107 -0.17256325 80.25247192 -0.17625427 C82.00259186 -0.17527496 83.75274245 -0.16186111 85.50268555 -0.13696289 C88.17449997 -0.10274619 90.84299006 -0.11627343 93.51489258 -0.13574219 C95.21672952 -0.12884093 96.91855793 -0.11916601 98.62036133 -0.10644531 C99.41634735 -0.11140518 100.21233337 -0.11636505 101.03244019 -0.12147522 C104.93183303 -0.03921893 106.90428592 0.20494087 110.29663086 2.30786133 C113.35044535 5.56292478 113.44276324 8.24382987 113.46284485 12.52583313 C113.4735778 14.09666656 113.4735778 14.09666656 113.48452759 15.69923401 C113.48721649 16.84786423 113.4899054 17.99649445 113.49267578 19.17993164 C113.49924698 20.38992828 113.50581818 21.59992493 113.5125885 22.84658813 C113.53233542 26.85964199 113.54398818 30.87265589 113.55395508 34.88574219 C113.55800342 36.26839912 113.56212036 37.65105586 113.56630516 39.03371239 C113.58535114 45.52957584 113.59958379 52.02542797 113.60791713 58.52131397 C113.61768982 66.01501426 113.64401231 73.50841919 113.68441802 81.00201541 C113.71459298 86.79745333 113.72938727 92.59280664 113.73269814 98.38832158 C113.73504695 101.84827644 113.74398479 105.30791556 113.76915932 108.76778603 C113.79680247 112.6292221 113.79260465 116.49027038 113.78564453 120.35180664 C113.79845459 121.49436417 113.81126465 122.63692169 113.82446289 123.81410217 C113.78411615 129.94809341 113.59927234 133.88336895 109.31567383 138.45996094 C106.40666369 139.42963098 104.57579892 139.5834854 101.55110168 139.58021545 C100.57093582 139.58159012 99.59076996 139.58296478 98.5809021 139.5843811 C96.97005234 139.57898819 96.97005234 139.57898819 95.32666016 139.57348633 C94.19480789 139.57363235 93.06295563 139.57377838 91.89680481 139.57392883 C88.14708556 139.57323089 84.39741568 139.56544398 80.64770508 139.55761719 C78.05124438 139.55575259 75.45478332 139.55432888 72.85832214 139.55332947 C66.71728394 139.54989846 60.57626618 139.542013 54.43523568 139.53197998 C47.44376593 139.52080531 40.45229534 139.51530498 33.46081889 139.51028454 C19.07909431 139.49983003 4.6973847 139.48223901 -9.68432617 139.45996094 C-9.2729541 138.78304199 -8.86158203 138.10612305 -8.43774414 137.40869141 C-7.62781006 136.06895264 -7.62781006 136.06895264 -6.80151367 134.70214844 C-6.2663916 133.81897949 -5.73126953 132.93581055 -5.17993164 132.02587891 C-0.54028147 124.06591754 0.99724158 116.01607332 -1.34057617 106.90136719 C-4.37043307 99.15694849 -9.63696612 95.35505666 -16.92651367 91.78808594 C-17.81967285 91.34883789 -18.71283203 90.90958984 -19.63305664 90.45703125 C-20.30997559 90.12799805 -20.98689453 89.79896484 -21.68432617 89.45996094 C-21.77702019 78.72453287 -21.84808823 67.98920006 -21.89157486 57.25345325 C-21.91244668 52.26835301 -21.94075704 47.28352662 -21.98608398 42.29858398 C-22.02955602 37.48751319 -22.05346633 32.67670577 -22.06383514 27.86545372 C-22.07122407 26.03021791 -22.08565297 24.19499646 -22.1072464 22.35987282 C-22.13629874 19.78850826 -22.14028146 17.21823088 -22.13842773 14.64672852 C-22.15999939 13.50952614 -22.15999939 13.50952614 -22.18200684 12.34934998 C-22.15329977 8.667432 -21.79756505 6.63541765 -19.78094482 3.51078796 C-14.76390975 -1.39667154 -6.64830888 0.07740027 0 0 Z " fill="#F9F9F9" transform="translate(804.684326171875,482.5400390625)"/>
<path d="M0 0 C9.54274587 7.94927028 15.52514926 18.31770099 17.05859375 30.71484375 C18.09221019 44.39376764 14.17620358 56.24480502 6.1796875 67.28515625 C-1.64580711 76.24916665 -11.36284161 81.0076941 -23.09423828 81.8737793 C-37.13539357 82.58355531 -47.82515449 80.87876505 -58.97265625 71.609375 C-62.09116369 68.60843034 -64.5660272 65.32019254 -66.94140625 61.71484375 C-67.49828125 60.91046875 -68.05515625 60.10609375 -68.62890625 59.27734375 C-74.62057378 47.57932618 -75.86724112 34.00015493 -71.9765625 21.44140625 C-67.19525982 8.84763543 -59.32670588 -0.64589216 -46.94140625 -6.28515625 C-30.35213047 -11.94301736 -14.33027505 -10.33357448 0 0 Z " fill="#080707" transform="translate(996.94140625,812.28515625)"/>
<path d="M0 0 C1.32669341 0.99869172 2.63099022 2.0286795 3.8984375 3.1015625 C5.70978341 4.54240584 7.52006695 5.5029708 9.6171875 6.46875 C10.1740625 5.92605469 10.7309375 5.38335938 11.3046875 4.82421875 C19.76825566 -3.1103764 27.55946709 -5.96974556 39.32421875 -5.7421875 C49.83557661 -4.7752142 59.65570437 -1.05792212 66.9921875 6.71875 C72.17208822 13.30734893 74.69050519 21.70291152 74.82592773 29.98413086 C74.84521835 31.08885239 74.86450897 32.19357391 74.88438416 33.33177185 C74.9421949 38.36169008 74.99135309 43.39146936 75.0222168 48.42163086 C75.04385042 51.07638514 75.07801547 53.7310671 75.12475586 56.38549805 C75.19154513 60.21435366 75.21917842 64.04173889 75.23828125 67.87109375 C75.26611191 69.05767075 75.29394257 70.24424774 75.32261658 71.46678162 C75.30260043 79.45932849 75.30260043 79.45932849 73.34915161 82.33621216 C70.8588703 84.51883218 68.72568346 85.44705081 65.4921875 86.09375 C62.6171875 85.46875 62.6171875 85.46875 60.46679688 83.6809082 C57.62750785 78.7500046 58.09243725 74.04094818 58.1484375 68.44921875 C58.14138794 67.27668045 58.13433838 66.10414215 58.1270752 64.89607239 C58.09759636 59.88689862 58.11419447 54.87811359 58.12646484 49.86889648 C58.12885092 46.20793566 58.1078938 42.54760168 58.0859375 38.88671875 C58.09725708 37.76251022 58.10857666 36.6383017 58.12023926 35.48002625 C58.07396149 28.24470941 57.23325308 22.45473521 52.24060059 16.95133972 C46.89774511 12.11061473 41.21743298 10.91827308 34.2109375 11.09765625 C29.03193062 11.83862862 24.76214962 13.97274059 21.33773804 17.95759583 C16.91319774 24.13551416 16.94415115 29.69039239 17.05078125 37.10546875 C17.04514664 38.30307327 17.03951202 39.5006778 17.03370667 40.73457336 C17.01730377 44.54220185 17.03277298 48.34866242 17.0546875 52.15625 C17.07128099 55.97443716 17.0803905 59.79186284 17.06495667 63.61006165 C17.05567478 65.98065935 17.06484633 68.35141825 17.09458923 70.72184753 C17.06798486 78.70978338 17.06798486 78.70978338 14.71508789 82.67114258 C12.23043617 84.80014183 11.04858365 85.40164393 7.8046875 85.90625 C4.17752775 85.40840454 2.88663913 84.39463152 0.65603638 81.53631592 C-1.55441973 77.13696215 -1.01972935 72.1651983 -0.94921875 67.3515625 C-0.95485336 66.18043915 -0.96048798 65.0093158 -0.96629333 63.80270386 C-0.9827331 60.06597768 -0.96721372 56.3304349 -0.9453125 52.59375 C-0.9286912 48.86431562 -0.91966856 45.13566635 -0.93504333 41.40621948 C-0.9442843 39.08893577 -0.93529076 36.77148571 -0.90541077 34.45437622 C-0.93207141 26.5522507 -1.98527086 20.95811709 -7.6953125 15.09375 C-13.47028638 11.60190533 -19.74272247 10.55445189 -26.3828125 11.46875 C-32.184546 13.30197279 -36.02878056 16.33905409 -39.3828125 21.46875 C-41.5562927 28.18047964 -41.64785559 34.46970907 -41.62109375 41.484375 C-41.63649849 43.80990177 -41.65280099 46.13542273 -41.66992188 48.4609375 C-41.68643631 52.10397202 -41.69525883 55.74657917 -41.68823242 59.38964844 C-41.68562206 62.92171203 -41.71364413 66.45248369 -41.74609375 69.984375 C-41.73588699 71.07606995 -41.72568024 72.16776489 -41.71516418 73.2925415 C-41.81296922 80.81983247 -41.81296922 80.81983247 -44.73510742 84.14746094 C-48.04697752 85.80018947 -49.73624473 86.22845162 -53.3828125 85.46875 C-56.5439013 82.7535417 -58.10730669 81.01298904 -58.8454895 76.87539673 C-59.02873945 73.65263478 -59.04933799 70.46609218 -59.01171875 67.23828125 C-59.01413071 66.05207687 -59.01654266 64.8658725 -59.01902771 63.64372253 C-59.01804961 61.13638973 -59.00466528 58.62903524 -58.97973633 56.12182617 C-58.94558433 52.31157718 -58.95904383 48.50366924 -58.97851562 44.69335938 C-58.97161218 42.24999024 -58.96193531 39.80662705 -58.94921875 37.36328125 C-58.95417862 36.23581985 -58.95913849 35.10835846 -58.96424866 33.94673157 C-58.79055323 22.09076244 -55.24709014 12.56521849 -47.1328125 3.84375 C-43.58064147 0.4054306 -39.95312737 -1.70495952 -35.3828125 -3.53125 C-34.3515625 -3.94375 -33.3203125 -4.35625 -32.2578125 -4.78125 C-21.13258634 -6.93451958 -9.72215626 -6.24768074 0 0 Z " fill="#080807" transform="translate(301.3828125,808.53125)"/>
<path d="M0 0 C2.17449662 1.71032523 3.01963435 3.0521234 4.03125 5.59765625 C5.00964844 4.78361328 5.00964844 4.78361328 6.0078125 3.953125 C16.55523465 -4.68082676 25.30022291 -8.24594934 39.03125 -7.40234375 C48.74529622 -6.30584569 56.54052504 -1.75463183 63.23828125 5.27734375 C68.36874291 11.91676473 71.1222083 19.69058616 71.20825195 28.02124023 C71.22750481 29.6482914 71.22750481 29.6482914 71.24714661 31.30821228 C71.25453354 32.47493973 71.26192047 33.64166718 71.26953125 34.84375 C71.277603 36.04701431 71.28567474 37.25027863 71.29399109 38.49000549 C71.30781634 41.0344194 71.31854546 43.57885173 71.32641602 46.12329102 C71.34366863 50.0167936 71.38757506 53.90945573 71.43164062 57.80273438 C71.44176434 60.27473334 71.45028144 62.74673952 71.45703125 65.21875 C71.47453934 66.38345322 71.49204742 67.54815643 71.51008606 68.74815369 C71.48836295 76.82574629 71.48836295 76.82574629 69.12963867 80.80883789 C66.5810828 82.98141135 65.50528333 83.54613089 62.15625 83.91015625 C59.03125 83.59765625 59.03125 83.59765625 56.86708069 81.8959198 C54.68876703 79.16890423 54.53231402 77.95862271 54.53295898 74.51293945 C54.52292343 73.5012117 54.51288788 72.48948395 54.50254822 71.44709778 C54.51073074 70.35853989 54.51891327 69.26998199 54.52734375 68.1484375 C54.51792252 67.02124802 54.50850128 65.89405853 54.49879456 64.73271179 C54.47009729 61.12500933 54.46706692 57.51796369 54.46875 53.91015625 C54.46513483 50.3202969 54.45548543 46.73091887 54.42799377 43.14115906 C54.41129859 40.90848304 54.40825565 38.67564942 54.42100525 36.44294739 C54.36928382 28.72245555 53.51180702 21.56988583 48.78125 15.22265625 C44.00483535 10.66335135 40.03535478 9.43635231 33.59375 9.16015625 C28.31266733 9.33401905 24.23866999 10.32521848 20.03125 13.59765625 C15.32212345 18.65908654 13.90240592 23.06476623 13.92114258 29.92944336 C13.92027397 31.52646339 13.92027397 31.52646339 13.91938782 33.15574646 C13.92149765 34.30060013 13.92360748 35.4454538 13.92578125 36.625 C13.91232968 39.05013913 13.89730735 41.47526997 13.88085938 43.90039062 C13.85798995 47.72351909 13.84378427 51.54570813 13.85620117 55.36889648 C13.86499817 59.0591183 13.83616571 62.74747154 13.80078125 66.4375 C13.81301224 67.58032944 13.82524323 68.72315887 13.83784485 69.90061951 C13.71995311 77.6049988 13.71995311 77.6049988 11.75424194 80.43826294 C9.25857079 82.62440997 7.14868722 83.57416881 3.90625 84.22265625 C1.03125 83.59765625 1.03125 83.59765625 -1.12133789 81.82128906 C-3.97774914 76.83700809 -3.47336007 72.03893125 -3.40234375 66.39453125 C-3.41195255 63.94531188 -3.42172326 61.49609314 -3.43164062 59.046875 C-3.42305487 55.1980051 -3.40625951 51.34930299 -3.3840332 47.50048828 C-3.36946166 43.77733969 -3.38480613 40.05514652 -3.40234375 36.33203125 C-3.38586288 35.19111023 -3.36938202 34.05018921 -3.35240173 32.87469482 C-3.39734502 25.6360362 -4.52831658 20.43211822 -8.96875 14.59765625 C-13.76156384 10.59041951 -19.59484361 8.8225992 -25.80859375 9.25 C-32.51911398 10.32999331 -36.46794207 12.44441283 -40.7421875 17.78125 C-43.37327837 21.67761068 -44.21564088 24.38386873 -44.19238281 29.12890625 C-44.19288635 30.23685547 -44.19338989 31.34480469 -44.19390869 32.48632812 C-44.18663757 33.67806641 -44.17936646 34.86980469 -44.171875 36.09765625 C-44.18241985 38.61849477 -44.1941756 41.13932846 -44.20703125 43.66015625 C-44.21736698 47.63695307 -44.21867267 51.61307676 -44.19873047 55.58984375 C-44.18401114 59.42636558 -44.20636967 63.26124081 -44.234375 67.09765625 C-44.21900696 68.28939453 -44.20363892 69.48113281 -44.18780518 70.70898438 C-44.2850058 78.92221279 -44.2850058 78.92221279 -47.78417969 82.37890625 C-51.74414676 83.89440423 -53.92168458 83.81941185 -57.96875 82.59765625 C-60.97919882 79.52904929 -61.35258978 77.23240714 -61.38867188 73.00976562 C-61.40458374 71.88759644 -61.42049561 70.76542725 -61.43688965 69.60925293 C-61.43709106 68.39886353 -61.43729248 67.18847412 -61.4375 65.94140625 C-61.44511353 64.68815552 -61.45272705 63.43490479 -61.46057129 62.14367676 C-61.47138428 59.48706491 -61.47558929 56.83134159 -61.46972656 54.17480469 C-61.46503144 51.47057413 -61.47874458 48.7675202 -61.51074219 46.06347656 C-61.55388104 42.14742778 -61.56262512 38.23266815 -61.5625 34.31640625 C-61.57889526 33.12221069 -61.59529053 31.92801514 -61.61218262 30.69763184 C-61.52921706 20.46772765 -58.93842954 10.68975195 -51.68359375 3.12109375 C-36.1948587 -10.63883033 -17.21240362 -10.21305594 0 0 Z " fill="#070606" transform="translate(564.96875,810.40234375)"/>
<path d="M0 0 C8.44627829 6.62404915 13.28507151 14.8480198 15.8125 25.1875 C17.07327586 38.04741379 17.07327586 38.04741379 14.25 42 C10.595129 44.36491653 8.48048329 44.49722208 4.11474609 44.48852539 C2.85358978 44.48844986 1.59243347 44.48837433 0.2930603 44.48829651 C-1.08848103 44.48318949 -2.47002196 44.47797349 -3.8515625 44.47265625 C-5.2611791 44.47079144 -6.67079634 44.46936783 -8.08041382 44.46836853 C-11.79253932 44.46454833 -15.50462578 44.45472228 -19.21673584 44.44366455 C-23.00386019 44.43343975 -26.79099083 44.42886862 -30.578125 44.42382812 C-38.01043448 44.41309958 -45.44271177 44.39602911 -52.875 44.375 C-52.26244908 46.13879242 -51.64253118 47.90002745 -51.01953125 49.66015625 C-50.50289917 51.13174194 -50.50289917 51.13174194 -49.97583008 52.63305664 C-46.92041846 60.24346424 -41.30447185 63.40634585 -34.0625 66.625 C-26.08799508 68.5013541 -18.37413369 67.64538897 -10.875 64.375 C-9.28658656 63.35164511 -7.72313453 62.28847188 -6.1875 61.1875 C-3.19780611 59.07836851 -1.8398444 58.36855481 1.875 57.6875 C6.16669126 58.59535777 7.69105294 59.72407941 10.125 63.375 C10.40603169 66.91599923 10.50047323 68.28322831 9.125 71.375 C3.23218218 78.19155683 -8.28971589 82.87148482 -17.18994141 83.55200195 C-19.96006224 83.6189221 -22.72920372 83.65990243 -25.5 83.6875 C-26.92119141 83.73100586 -26.92119141 83.73100586 -28.37109375 83.77539062 C-39.93984142 83.87825911 -49.54755188 79.11995741 -58.0390625 71.41015625 C-67.79768966 61.30431201 -71.3516816 47.98044938 -71.12109375 34.2265625 C-70.33828533 21.9749895 -65.91230061 11.4009111 -56.84375 2.96875 C-40.40543737 -10.33845547 -17.75354892 -11.9485738 0 0 Z " fill="#090909" transform="translate(466.875,810.625)"/>
<path d="M0 0 C8.37740238 7.21018053 14.40850635 16.53186015 15.48828125 27.74609375 C15.76443053 36.16864669 15.76443053 36.16864669 12.83984375 40.09375 C8.93927946 42.78699677 7.02250092 43.02934242 2.29638672 43.01977539 C1.05525116 43.01969986 -0.1858844 43.01962433 -1.46463013 43.01954651 C-2.82407674 43.0144395 -4.18352294 43.0092235 -5.54296875 43.00390625 C-6.93016509 43.00204142 -8.31736209 43.00061782 -9.70455933 42.99961853 C-13.35750137 42.99579848 -17.01040373 42.98597255 -20.66333008 42.97491455 C-24.39013126 42.96468944 -28.11693884 42.96011855 -31.84375 42.95507812 C-39.15757019 42.94434983 -46.47135766 42.92727954 -53.78515625 42.90625 C-53.48996094 44.16179688 -53.19476562 45.41734375 -52.890625 46.7109375 C-52.72457764 47.41718262 -52.55853027 48.12342773 -52.38745117 48.85107422 C-50.60120524 54.94617688 -45.93589643 59.45545767 -40.78515625 62.90625 C-32.47278973 67.03153227 -24.3345475 66.89864432 -15.59765625 64.21875 C-11.94862243 62.91685686 -9.01452041 61.55018345 -5.97265625 59.15625 C-2.17683606 56.47684751 -0.33566136 56.13352272 4.21484375 56.90625 C6.65234375 58.40625 6.65234375 58.40625 8.21484375 60.90625 C9.08423123 65.80643396 9.08423123 65.80643396 8.21484375 68.90625 C2.81154006 76.31205601 -8.09540865 80.38759832 -16.78515625 81.90625 C-30.74397996 83.17306825 -43.72269768 82.73376703 -54.94921875 73.5234375 C-55.55507813 72.98976563 -56.1609375 72.45609375 -56.78515625 71.90625 C-57.69394531 71.13667969 -57.69394531 71.13667969 -58.62109375 70.3515625 C-67.59911628 62.15764674 -71.24075583 52.02121872 -72.03515625 40.1796875 C-72.54791785 27.57429816 -70.21870027 15.7273643 -61.78515625 5.90625 C-45.03330112 -11.43585506 -19.98805104 -15.29069707 0 0 Z " fill="#0A0909" transform="translate(727.78515625,812.09375)"/>
<path d="M0 0 C7.52064608 5.85233375 12.25066245 13.3898035 14.21875 22.7265625 C14.32357001 24.53234666 14.37707041 26.34141913 14.39575195 28.15014648 C14.41500481 29.77719765 14.41500481 29.77719765 14.43464661 31.43711853 C14.44203354 32.60384598 14.44942047 33.77057343 14.45703125 34.97265625 C14.465103 36.17592056 14.47317474 37.37918488 14.48149109 38.61891174 C14.49531634 41.16332565 14.50604546 43.70775798 14.51391602 46.25219727 C14.53116863 50.14569985 14.57507506 54.03836198 14.61914062 57.93164062 C14.62926434 60.40363959 14.63778144 62.87564577 14.64453125 65.34765625 C14.66203934 66.51235947 14.67954742 67.67706268 14.69758606 68.87705994 C14.67586295 76.95465254 14.67586295 76.95465254 12.31713867 80.93774414 C9.7685828 83.1103176 8.69278333 83.67503714 5.34375 84.0390625 C2.21875 83.7265625 2.21875 83.7265625 0.05493164 82.40893555 C-2.90597837 78.08351097 -2.32442339 73.61500587 -2.28515625 68.49609375 C-2.29457748 67.39110031 -2.30399872 66.28610687 -2.31370544 65.14762878 C-2.3423997 61.61125235 -2.34543324 58.075546 -2.34375 54.5390625 C-2.34736567 51.02052901 -2.35702102 47.50248656 -2.38450623 43.98405457 C-2.40119579 41.79589472 -2.40424884 39.60757414 -2.39149475 37.41938782 C-2.44559973 29.50046941 -3.56276339 23.08598507 -7.96875 16.4140625 C-13.555381 11.07572621 -17.9952844 9.47637958 -25.78125 9.2265625 C-33.73919513 9.49012692 -38.65643597 11.22675692 -44.15625 16.9765625 C-49.71612183 23.25083127 -49.0508002 32.42810929 -49.01953125 40.26953125 C-49.03493771 42.49935514 -49.05124034 44.72917298 -49.06835938 46.95898438 C-49.08486138 50.44829724 -49.09370343 53.93716465 -49.08666992 57.42651367 C-49.0840555 60.81219309 -49.11211192 64.19653096 -49.14453125 67.58203125 C-49.13432449 68.62481735 -49.12411774 69.66760345 -49.11360168 70.74198914 C-49.17825043 75.52083713 -49.21319066 77.94926548 -52.09448242 81.8918457 C-55.58763016 84.27721647 -57.63414705 84.34094812 -61.78125 83.7265625 C-64.39718153 81.89541043 -64.75114455 80.81687884 -65.78125 77.7265625 C-65.88883235 75.99061065 -65.93998437 74.25090508 -65.95825195 72.51171875 C-65.97108719 71.44630859 -65.98392242 70.38089844 -65.99714661 69.28320312 C-66.00822701 67.55360352 -66.00822701 67.55360352 -66.01953125 65.7890625 C-66.027603 64.59861328 -66.03567474 63.40816406 -66.04399109 62.18164062 C-66.05783492 59.65642758 -66.06855572 57.13119579 -66.07641602 54.60595703 C-66.0935582 50.76948751 -66.13743521 46.93389558 -66.18164062 43.09765625 C-66.19177399 40.64063132 -66.20028807 38.18359907 -66.20703125 35.7265625 C-66.22453934 34.58968994 -66.24204742 33.45281738 -66.26008606 32.28149414 C-66.23200604 21.81349309 -63.69016016 12.91670569 -56.89453125 4.796875 C-41.61827158 -10.1687768 -17.80296476 -11.73377223 0 0 Z " fill="#070706" transform="translate(828.78125,810.2734375)"/>
<path d="M0 0 C2.69921875 1.73828125 2.69921875 1.73828125 5 5 C5.62077373 9.28539022 5.46975516 13.49403149 5.3125 17.8125 C5.28994141 18.98232422 5.26738281 20.15214844 5.24414062 21.35742188 C5.18532091 24.23958769 5.10317141 27.11913681 5 30 C6.97033203 29.93039062 6.97033203 29.93039062 8.98046875 29.859375 C10.71612304 29.82184734 12.45180199 29.78544825 14.1875 29.75 C15.05181641 29.71648438 15.91613281 29.68296875 16.80664062 29.6484375 C21.00731882 29.58405929 23.38134811 29.63885803 27.078125 31.796875 C29 34 29 34 29.5625 37.5 C29 41 29 41 27.60546875 43.203125 C23.53851931 46.00791772 19.56078595 45.42518268 14.75 45.25 C13.34621094 45.22292969 13.34621094 45.22292969 11.9140625 45.1953125 C9.60832985 45.14825673 7.30469055 45.08253713 5 45 C5.0670194 52.02955882 5.15683406 59.05856233 5.26245117 66.08764648 C5.29569167 68.47852983 5.32372629 70.86949148 5.34643555 73.26049805 C5.37999683 76.69874419 5.43231524 80.13627329 5.48828125 83.57421875 C5.49467117 84.64210129 5.5010611 85.70998383 5.50764465 86.81022644 C5.5542329 93.93175918 5.5542329 93.93175918 9 100 C13.52622052 102.52394331 18.18905427 102.36266918 23.2578125 102.55859375 C26 103 26 103 27.83203125 104.2578125 C29.7242457 107.08031298 29.60289229 109.51894942 29.45703125 112.8359375 C29 115 29 115 26.75 117.5625 C20.83620196 120.63150893 12.92950581 119.58364546 6.625 118.25 C-1.00724731 115.61819058 -5.70110516 111.10598287 -9.6262207 104.09545898 C-11.84187918 98.71243382 -11.36891328 93.0086569 -11.29296875 87.28515625 C-11.28872391 86.07427841 -11.28447906 84.86340057 -11.28010559 83.61582947 C-11.26336989 79.76448943 -11.22572572 75.91368077 -11.1875 72.0625 C-11.17244662 69.44466904 -11.15875936 66.82682984 -11.14648438 64.20898438 C-11.11348299 57.80580958 -11.06333386 51.40294277 -11 45 C-11.89203125 45.04640625 -12.7840625 45.0928125 -13.703125 45.140625 C-14.87359375 45.17671875 -16.0440625 45.2128125 -17.25 45.25 C-18.41015625 45.29640625 -19.5703125 45.3428125 -20.765625 45.390625 C-24 45 -24 45 -26.390625 43.203125 C-28.7309759 39.99934366 -28.55235041 37.86645287 -28 34 C-26.359375 31.796875 -26.359375 31.796875 -24 30 C-20.984375 29.609375 -20.984375 29.609375 -17.75 29.75 C-16.67234375 29.78609375 -15.5946875 29.8221875 -14.484375 29.859375 C-13.25460937 29.92898438 -13.25460937 29.92898438 -12 30 C-12.02618408 29.26885986 -12.05236816 28.53771973 -12.0793457 27.78442383 C-12.18350144 24.46066918 -12.24838621 21.13725806 -12.3125 17.8125 C-12.35439453 16.66201172 -12.39628906 15.51152344 -12.43945312 14.32617188 C-12.56304681 5.79820728 -12.56304681 5.79820728 -9.69921875 1.73828125 C-6.11745077 -0.5683566 -4.18370218 -0.74708968 0 0 Z " fill="#090808" transform="translate(885,775)"/>
<path d="M0 0 C6.04310428 3.45445179 10.4628749 8.17513847 13.03515625 14.6953125 C15.22642032 24.09196842 15.14680128 34.22277077 10.04296875 42.6015625 C9.3778125 43.56255859 9.3778125 43.56255859 8.69921875 44.54296875 C8.12171875 45.47109375 7.54421875 46.39921875 6.94921875 47.35546875 C-0.64419053 54.73794999 -8.69898931 55.84614423 -18.8828125 55.76171875 C-23.21848445 55.48423575 -25.56761437 54.72064943 -29.30078125 52.54296875 C-30.31140625 52.02734375 -31.32203125 51.51171875 -32.36328125 50.98046875 C-36.53326293 47.52027118 -38.77814152 43.28431572 -41.30078125 38.54296875 C-41.67976562 37.95 -42.05875 37.35703125 -42.44921875 36.74609375 C-44.8292357 30.5886187 -44.26717839 21.26579409 -42.61328125 14.89453125 C-41.67258057 12.91122065 -40.63227237 11.28479361 -39.30078125 9.54296875 C-38.91148437 8.94484375 -38.5221875 8.34671875 -38.12109375 7.73046875 C-28.82810476 -5.02677057 -13.41260307 -6.25921476 0 0 Z " fill="#FAFAFA" transform="translate(983.30078125,822.45703125)"/>
<path d="M0 0 C1.13240616 -0.00810448 1.13240616 -0.00810448 2.28768921 -0.01637268 C4.77943304 -0.02886476 7.27002247 -0.01236676 9.76171875 0.00561523 C11.49519918 0.00546026 13.22867997 0.00397148 14.9621582 0.00120544 C18.59374321 -0.00017876 22.22493338 0.01238283 25.85644531 0.03515625 C30.51054287 0.0635411 35.16398439 0.06080392 39.81813049 0.04806614 C43.39723307 0.04110982 46.97618411 0.04889768 50.55526733 0.06132317 C52.27126484 0.06583813 53.98727861 0.06617406 55.70327759 0.06225777 C58.10200319 0.05934596 60.49982601 0.07585011 62.8984375 0.09765625 C63.60712982 0.0931546 64.31582214 0.08865295 65.04598999 0.08401489 C69.11385667 0.14543162 71.54216914 0.5683058 74.44921875 3.50170898 C75.234375 5.36889648 75.234375 5.36889648 75.51171875 7.37670898 C75.62644531 8.03413086 75.74117187 8.69155273 75.859375 9.36889648 C75.1817094 12.89275761 73.17535922 14.28070303 70.44921875 16.50170898 C67.68594687 16.99268303 65.53984331 17.17849587 62.78491211 17.1328125 C62.02982864 17.1399678 61.27474518 17.14712311 60.4967804 17.15449524 C58.01025194 17.17135263 55.52553391 17.15200094 53.0390625 17.13061523 C51.30701041 17.13144413 49.57495839 17.13390429 47.84291077 17.13792419 C44.21721654 17.14078003 40.59214082 17.12610087 36.96655273 17.09863281 C32.32018316 17.06452448 27.67491751 17.07057848 23.02849483 17.08929539 C19.45364688 17.09986477 15.87905572 17.09092864 12.30423164 17.07591057 C10.59102707 17.07072953 8.87779567 17.07120962 7.16459465 17.07745552 C4.77052008 17.0829082 2.37802536 17.06253434 -0.01586914 17.03515625 C-0.72299042 17.04168213 -1.43011169 17.04820801 -2.15866089 17.05493164 C-5.55729919 16.9888648 -7.27737035 16.71574471 -9.98851013 14.59336853 C-11.68449599 12.3226839 -12.09449118 11.29914422 -12.05078125 8.50170898 C-12.06625 7.51170898 -12.06625 7.51170898 -12.08203125 6.50170898 C-10.43715018 0.30921555 -5.55684954 -0.07580645 0 0 Z " fill="#080808" transform="translate(818.55078125,549.498291015625)"/>
<path d="M0 0 C0.76454498 -0.00365067 1.52908997 -0.00730133 2.31680298 -0.01106262 C4.84627437 -0.01917412 7.37510628 -0.00555214 9.90454102 0.0090332 C11.66187032 0.00955179 13.4192002 0.00903413 15.17652893 0.00752258 C18.86110078 0.00761234 22.54545398 0.01804709 26.22998047 0.03613281 C30.95237899 0.05880342 35.67445747 0.05936742 40.39689541 0.05261517 C44.02658429 0.04927279 47.65620027 0.05591062 51.28587532 0.0657444 C53.02699464 0.06959331 54.76812207 0.0707459 56.50924492 0.06915855 C58.94382025 0.06878753 61.37798619 0.08141891 63.8125 0.09765625 C64.89192116 0.09394012 64.89192116 0.09394012 65.9931488 0.09014893 C69.62069684 0.12874512 72.44570038 0.25628251 75.47094727 2.37231445 C76.89756945 5.22555883 76.78128594 7.20685994 76.47094727 10.37231445 C74.93580627 13.03208923 74.93580627 13.03208923 72.47094727 15.37231445 C69.68492783 15.87265093 67.50480737 16.04807349 64.72070312 16.00341797 C63.55662682 16.01415092 63.55662682 16.01415092 62.36903381 16.02510071 C59.8073516 16.04199113 57.24741851 16.02258663 54.68579102 16.0012207 C52.9050736 16.00204929 51.12435626 16.0045083 49.34364319 16.00852966 C45.6136266 16.01138777 41.88421047 15.99668409 38.15429688 15.96923828 C33.36992676 15.93513039 28.58662865 15.9411816 23.80220699 15.95990086 C20.12617534 15.97046125 16.45039383 15.96154228 12.77438545 15.94651604 C11.01011459 15.94132834 9.24581768 15.94182315 7.48155022 15.94806099 C5.017726 15.95350275 2.55544526 15.93317458 0.09179688 15.90576172 C-0.6391922 15.9122876 -1.37018127 15.91881348 -2.12332153 15.92553711 C-5.40203521 15.86340552 -7.08322553 15.80780188 -9.48045349 13.46617126 C-11.27471596 9.88336427 -10.90833672 7.35479632 -10.52905273 3.37231445 C-8.08559694 -0.62593577 -4.21175643 -0.04461177 0 0 Z " fill="#060605" transform="translate(817.529052734375,520.627685546875)"/>
<path d="M0 0 C4.48430577 4.62019382 5.98547337 7.66284023 7.0625 14.125 C-9.7675 14.125 -26.5975 14.125 -43.9375 14.125 C-42.73561536 6.91369218 -40.72280053 3.3339748 -35.0625 -1.125 C-24.01842372 -8.86598558 -11.03474539 -7.0434545 0 0 Z " fill="#F8F8F8" transform="translate(458.9375,824.875)"/>
<path d="M0 0 C4.47565191 3.21836954 9.06127799 6.67861199 11 12 C11 13.65 11 15.3 11 17 C-5.83 17 -22.66 17 -40 17 C-38.44880608 9.24403041 -34.38128571 4.42383611 -28 0 C-19.36433795 -4.79360035 -8.7777017 -4.21496611 0 0 Z " fill="#F8F8F8" transform="translate(714,822)"/>
<path d="M0 0 C4.29158001 1.79647535 7.86987641 4.81832296 10 9 C10.94925971 14.0327131 10.56963072 17.83964113 8.3125 22.4375 C4.51727712 26.64301725 1.77284037 28.17741998 -3.875 28.5625 C-8.71622632 28.41798578 -11.27920482 27.04544197 -14.66015625 23.640625 C-17.36274743 20.33132968 -17.91590666 17.77085562 -18.375 13.5625 C-17.78934795 7.99880552 -15.40684189 5.21499981 -11.25 1.625 C-6.96224232 -0.51887884 -4.76434281 -0.52937142 0 0 Z " fill="#0A0909" transform="translate(673,473)"/>
<path d="M0 0 C3.98261611 2.06692735 6.45113431 4.09882503 8.1015625 8.2734375 C8.6716872 13.49958055 7.92274105 16.84015692 5.1015625 21.2734375 C1.20127142 24.80807629 -2.56862929 25.68894608 -7.83203125 25.62109375 C-11.62794504 24.98246175 -13.29506101 23.06276946 -15.8984375 20.2734375 C-18.18310588 16.32719212 -18.37253491 12.77736293 -17.8984375 8.2734375 C-14.12409689 1.00433706 -8.32218907 -3.18503532 0 0 Z " fill="#F5F5F5" transform="translate(854.8984375,456.7265625)"/>
<path d="M0 0 C10.10077513 -0.0926561 20.20144925 -0.16374267 30.30256271 -0.20724869 C34.99287673 -0.22812886 39.68290013 -0.25645422 44.37304688 -0.30175781 C48.89882516 -0.34520044 53.42432381 -0.36913387 57.95029449 -0.37950897 C59.67750705 -0.38690321 61.4047042 -0.40134245 63.13179779 -0.42292023 C65.55011639 -0.45193394 67.96727771 -0.45595697 70.38574219 -0.45410156 C71.10071869 -0.46848267 71.81569519 -0.48286377 72.55233765 -0.49768066 C76.07370598 -0.468423 77.70943907 -0.23804293 80.47589111 2.02838135 C80.97884705 2.6790155 81.48180298 3.32964966 82 4 C81.34 4.66 80.68 5.32 80 6 C79.01 5.34 78.02 4.68 77 4 C74.49514053 3.78759456 72.09758154 3.68878684 69.59106445 3.68115234 C68.83960144 3.67110672 68.08813843 3.6610611 67.31390381 3.65071106 C64.83037073 3.61982343 62.34694572 3.60282861 59.86328125 3.5859375 C58.14120042 3.56723032 56.4191288 3.54765725 54.69706726 3.5272522 C50.16467716 3.47587737 45.63225732 3.43628034 41.09973145 3.39910889 C36.4746156 3.35910274 31.84962402 3.30799496 27.22460938 3.2578125 C18.14982681 3.16098989 9.07497417 3.07660541 0 3 C0 2.01 0 1.02 0 0 Z " fill="#212121" transform="translate(811,550)"/>
<path d="M0 0 C0 2.83967231 -0.40267181 5.23735711 -1 8 C-1.99 8.33 -2.98 8.66 -4 9 C-3.34 9.33 -2.68 9.66 -2 10 C-1.97112764 13.81248426 -1.95324508 17.6249407 -1.9375 21.4375 C-1.92912109 22.52611328 -1.92074219 23.61472656 -1.91210938 24.73632812 C-1.90888672 25.77080078 -1.90566406 26.80527344 -1.90234375 27.87109375 C-1.89710693 28.82943115 -1.89187012 29.78776855 -1.88647461 30.77514648 C-2 33 -2 33 -3 34 C-3.15764405 35.77869726 -3.25100677 37.56318476 -3.31640625 39.34765625 C-3.35830078 40.42724609 -3.40019531 41.50683594 -3.44335938 42.61914062 C-3.48267578 43.75544922 -3.52199219 44.89175781 -3.5625 46.0625 C-3.60568359 47.20267578 -3.64886719 48.34285156 -3.69335938 49.51757812 C-3.79982839 52.34492195 -3.90184207 55.17235738 -4 58 C-4.33 58 -4.66 58 -5 58 C-5.12722431 51.02591525 -5.21452903 44.05213195 -5.2746582 37.07714844 C-5.29973575 34.70659196 -5.33380632 32.3361123 -5.37719727 29.96582031 C-5.43814397 26.54993695 -5.4662785 23.13507964 -5.48828125 19.71875 C-5.51408768 18.66635132 -5.5398941 17.61395264 -5.56648254 16.52966309 C-5.56907425 9.66405113 -4.32882469 5.38000113 0 0 Z " fill="#F2F2F3" transform="translate(323,825)"/>
<path d="M0 0 C0.99 0.33 1.98 0.66 3 1 C3.05058332 8.2265322 3.08568412 15.45301899 3.10986328 22.6796875 C3.11993983 25.13966579 3.13360131 27.59963206 3.15087891 30.05957031 C3.17505461 33.58922285 3.1864664 37.11871747 3.1953125 40.6484375 C3.20563507 41.75367767 3.21595764 42.85891785 3.22659302 43.99765015 C3.22674408 45.01855743 3.22689514 46.03946472 3.22705078 47.09130859 C3.231492 47.99287689 3.23593323 48.89444519 3.24050903 49.82333374 C3 52 3 52 1 54 C0.00706191 51.02118573 -0.12119785 49.08512761 -0.11352539 45.9777832 C-0.11344986 44.95695145 -0.11337433 43.93611969 -0.11329651 42.88435364 C-0.10813522 41.78427475 -0.10297394 40.68419586 -0.09765625 39.55078125 C-0.0962413 38.4230278 -0.09482635 37.29527435 -0.09336853 36.13334656 C-0.0877647 32.52637088 -0.07521153 28.91945696 -0.0625 25.3125 C-0.05748549 22.86914152 -0.0529225 20.42578207 -0.04882812 17.98242188 C-0.03779403 11.98826013 -0.02105215 5.99413448 0 0 Z " fill="#E1E2E2" transform="translate(501,836)"/>
<path d="M0 0 C0.66 0.33 1.32 0.66 2 1 C-0.18565824 4.44661492 -2.47963345 7.71243771 -5.0625 10.875 C-5.54847656 11.47054687 -6.03445313 12.06609375 -6.53515625 12.6796875 C-8 14 -8 14 -11 14 C-9.18352668 8.00563806 -5.14218863 3.42812575 0 0 Z " fill="#E6E6E6" transform="translate(536,697)"/>
<path d="M0 0 C0.66 1.32 1.32 2.64 2 4 C1.51660156 4.32871094 1.03320312 4.65742187 0.53515625 4.99609375 C-1.80557932 8.05155774 -1.49370565 11.3574331 -1.5625 15.0625 C-1.74493243 22.74493243 -1.74493243 22.74493243 -4 25 C-4.738041 6.95899772 -4.738041 6.95899772 0 0 Z " fill="#C5C5C6" transform="translate(944,832)"/>
<path d="M0 0 C0.66 0.33 1.32 0.66 2 1 C0.63016497 4.16115776 0.0109362 4.9927092 -3 7 C-6.1875 7.125 -6.1875 7.125 -9 7 C-9 6.01 -9 5.02 -9 4 C-7.88625 3.71125 -6.7725 3.4225 -5.625 3.125 C-1.99708908 2.30758671 -1.99708908 2.30758671 0 0 Z " fill="#181818" transform="translate(257,887)"/>
<path d="M0 0 C1.7325 0.1546875 1.7325 0.1546875 3.5 0.3125 C4.16 1.3025 4.82 2.2925 5.5 3.3125 C4.51 3.3125 3.52 3.3125 2.5 3.3125 C-0.93156089 3.82723413 -2.54076956 4.3396797 -5.5 6.3125 C-5.5 1.18549059 -5.1020904 0.45554379 0 0 Z " fill="#2B2B2B" transform="translate(583.5,524.6875)"/>
<path d="M0 0 C4.62 0 9.24 0 14 0 C11 3 11 3 8.51953125 3.29296875 C7.62621094 3.25816406 6.73289062 3.22335937 5.8125 3.1875 C4.91144531 3.16042969 4.01039063 3.13335938 3.08203125 3.10546875 C2.05142578 3.05326172 2.05142578 3.05326172 1 3 C0.67 2.01 0.34 1.02 0 0 Z " fill="#373636" transform="translate(273,803)"/>
<path d="M0 0 C1.13330997 3.75907744 0.65120922 5.42238003 -1 9 C-1.33 9.99 -1.66 10.98 -2 12 C-2.99 12.66 -3.98 13.32 -5 14 C-4.46515599 8.65155992 -2.53309233 4.64203897 0 0 Z " fill="#303031" transform="translate(930,823)"/>
<path d="M0 0 C0.66 0.33 1.32 0.66 2 1 C1.01 2.485 1.01 2.485 0 4 C-0.29991069 6.58885171 -0.50865225 9.09149082 -0.625 11.6875 C-0.66367187 12.38939453 -0.70234375 13.09128906 -0.7421875 13.81445312 C-0.8362334 15.54254655 -0.9191968 17.27123675 -1 19 C-1.33 19 -1.66 19 -2 19 C-2.24867947 16.39635591 -2.47457902 13.79410106 -2.6875 11.1875 C-2.79674805 10.08051758 -2.79674805 10.08051758 -2.90820312 8.95117188 C-3.33135078 3.45025238 -3.33135078 3.45025238 -1.51953125 0.98828125 C-1.01808594 0.66214844 -0.51664063 0.33601563 0 0 Z " fill="#E4E4E5" transform="translate(787,484)"/>
<path d="M0 0 C0 2.83967231 -0.40267181 5.23735711 -1 8 C-1.99 8.33 -2.98 8.66 -4 9 C-4.33 9.99 -4.66 10.98 -5 12 C-4.52389341 7.00088076 -2.96837781 4.02167317 0 0 Z " fill="#C5C5C6" transform="translate(323,825)"/>
<path d="M0 0 C-1.32 0.99 -2.64 1.98 -4 3 C-4 2.34 -4 1.68 -4 1 C-8.95 1 -13.9 1 -19 1 C-19 0.67 -19 0.34 -19 0 C-16.58373582 -0.19534474 -14.16734771 -0.38153404 -11.75 -0.5625 C-11.06808594 -0.61857422 -10.38617187 -0.67464844 -9.68359375 -0.73242188 C-6.2579419 -0.98186254 -3.27298823 -1.13879745 0 0 Z " fill="#A8A9A9" transform="translate(715,894)"/>
<path d="M0 0 C0.66 0.33 1.32 0.66 2 1 C-0.66666667 3.66666667 -3.33333333 6.33333333 -6 9 C-6.99 8.67 -7.98 8.34 -9 8 C-6.03 5.36 -3.06 2.72 0 0 Z " fill="#171718" transform="translate(527,684)"/>
<path d="M0 0 C0.66 0.66 1.32 1.32 2 2 C0.625 3.5 0.625 3.5 -1 5 C-1.66 5 -2.32 5 -3 5 C-3.33 5.99 -3.66 6.98 -4 8 C-4.99 7.67 -5.98 7.34 -7 7 C-4.69 4.69 -2.38 2.38 0 0 Z " fill="#ECECED" transform="translate(544,379)"/>
<path d="M0 0 C0 0.99 0 1.98 0 3 C-2.5 5.1875 -2.5 5.1875 -5 7 C-5.33 5.68 -5.66 4.36 -6 3 C-4.02 2.01 -2.04 1.02 0 0 Z " fill="#E9EAEA" transform="translate(570,361)"/>
<path d="M0 0 C0.99 0 1.98 0 3 0 C3.33 2.31 3.66 4.62 4 7 C2.68 7 1.36 7 0 7 C0.33 6.01 0.66 5.02 1 4 C1.05270463 2.63106761 1.05270463 2.63106761 0 0 Z " fill="#DBDCDB" transform="translate(721,832)"/>
<path d="M0 0 C0.66 0 1.32 0 2 0 C0.70700306 2.88437779 -0.65941363 4.87219421 -3 7 C-3.66 6.67 -4.32 6.34 -5 6 C-3.38405168 3.95880212 -1.7143618 1.95927063 0 0 Z " fill="#252626" transform="translate(524,377)"/>
<path d="M0 0 C0.66 0.99 1.32 1.98 2 3 C0.68 3.99 -0.64 4.98 -2 6 C-2.66 5.67 -3.32 5.34 -4 5 C-4 4.34 -4 3.68 -4 3 C-2 1.375 -2 1.375 0 0 Z " fill="#171717" transform="translate(700,738)"/>
</svg>
