<?xml version="1.0"?>
<svg width="1254" height="1254" xmlns="http://www.w3.org/2000/svg" xmlns:svg="http://www.w3.org/2000/svg" version="1.1">
 <g class="layer">
  <title>Layer 1</title>
  <path d="m609,452c1.48,0.77 1.48,0.77 3,1.55c20.35,11.09 36.27,29.55 44,51.45c0.26,0.66 0.53,1.33 0.8,2.01c1.91,4.82 3.27,9.74 4.55,14.77c0.44,2.17 0.44,2.17 1.65,3.22c0.55,2.79 1.04,5.57 1.5,8.38c0.13,0.76 0.26,1.52 0.39,2.3c2.02,12.19 2.26,24.23 2.28,36.56c0.01,3.08 0.02,6.16 0.04,9.24c0.05,8.75 0.1,17.5 0.12,26.25c0.01,5.38 0.04,10.75 0.08,16.13c0.01,2.03 0.01,4.06 0.01,6.09c-0.01,12.64 1.2,23.87 4.58,36.05c0.35,1.66 0.69,3.33 1,5c0.66,0 1.32,0 2,0c4,5.41 4,5.41 4,8c0.56,0.28 1.13,0.55 1.71,0.84c1.53,0.77 3.03,1.59 4.52,2.45c6.04,3.36 10.87,4.88 17.77,3.71c4.8,-1.38 8.84,-3.03 12.69,-6.25c2.31,-1.75 2.31,-1.75 5.75,-2.25c4.16,0.58 6.31,1.87 9.56,4.5c1.62,3.24 1.41,6.49 1,10c-4.14,11.82 -15.07,21.47 -26,27c-0.99,0.51 -1.98,1.01 -3,1.53c-13.12,5.67 -30.66,5.91 -44.03,0.85c-20.39,-9.45 -33.09,-23.04 -40.97,-44.38c-0.81,-2.35 -1.59,-4.69 -2.32,-7.06c-1.38,-4.26 -1.38,-4.26 -4.68,-6.94c-4.62,-0.39 -4.62,-0.39 -8.94,1c-2.05,3.87 -1.5,8.27 -0.45,12.4c0.87,2.61 1.82,5.16 2.83,7.73c0.54,1.38 0.54,1.38 1.09,2.79c4.88,12.04 13.5,29 25.59,35.16c2.63,2.68 2.37,4.7 2.41,8.35c-0.01,0.88 -0.02,1.77 -0.03,2.68c0.01,1.39 0.01,1.39 0.02,2.82c0.01,3.09 -0.01,6.17 -0.02,9.26c0,2.14 0,4.28 0,6.42c0,4.49 -0.01,8.98 -0.03,13.47c-0.03,5.76 -0.03,11.52 -0.02,17.28c0.01,4.42 0,8.84 -0.01,13.26c0,2.13 0,4.25 0,6.38c0,2.96 -0.01,5.93 -0.04,8.89c0.01,1.33 0.01,1.33 0.02,2.68c-0.01,0.81 -0.02,1.61 -0.03,2.44c-0.01,1.06 -0.01,1.06 -0.01,2.13c-0.51,2.47 -1.38,3.36 -3.38,4.86c-2.78,0.29 -5.34,0.39 -8.13,0.36c-1.24,0 -1.24,0 -2.51,0c-2.73,0.01 -5.47,-0.01 -8.21,-0.03c-1.9,0 -3.8,-0.01 -5.7,-0.01c-3.98,0 -7.96,-0.02 -11.94,-0.04c-5.11,-0.03 -10.22,-0.04 -15.34,-0.04c-3.92,-0.01 -7.84,-0.02 -11.76,-0.03c-1.88,0 -3.77,-0.01 -5.65,-0.01c-2.63,-0.01 -5.26,-0.02 -7.89,-0.04c-0.79,0 -1.57,0 -2.38,0c-5.38,-0.05 -5.38,-0.05 -6.49,-1.16c-0.17,-1.35 -0.28,-2.7 -0.36,-4.05c-1.18,-16.29 -4.65,-28.67 -16.89,-40.2c-4.39,-3.58 -9.54,-5.63 -14.75,-7.75c-1.09,-0.55 -1.09,-0.55 -2.21,-1.11c-10.49,-3.34 -24.18,-1.98 -34.06,2.56c-12.36,7.01 -20.36,16.79 -24.98,30.18c-1.09,4.9 -1.19,9.99 -1.41,15c-0.24,5.27 -0.24,5.27 -1.34,6.37c-3.12,0.12 -6.22,0.17 -9.34,0.18c-0.98,0 -1.96,0.01 -2.97,0.02c-3.26,0.02 -6.52,0.03 -9.78,0.04c-1.66,0 -1.66,0 -3.36,0.01c-5.87,0.02 -11.74,0.04 -17.61,0.05c-6.08,0.01 -12.16,0.04 -18.24,0.08c-4.66,0.03 -9.32,0.03 -13.98,0.04c-2.25,0 -4.49,0.02 -6.73,0.03c-3.13,0.03 -6.26,0.03 -9.39,0.02c-1.4,0.02 -1.4,0.02 -2.83,0.04c-6.14,-0.05 -6.14,-0.05 -8.85,-2.01c-1.34,-3.63 -1.34,-7.1 -1.31,-10.91c0,-0.85 -0.01,-1.7 -0.01,-2.57c-0.02,-2.81 -0.01,-5.63 0,-8.44c0,-1.97 0,-3.95 -0.01,-5.92c0,-4.16 0,-8.31 0.02,-12.47c0.02,-5.25 0.01,-10.5 -0.01,-15.75c-0.12,-42.32 0.89,-90.45 28.4,-125.44c2.98,2.83 5.35,5.76 7.69,9.13c4.07,5.67 8.53,10.79 13.31,15.87c0.54,0.6 1.08,1.21 1.63,1.83c14.68,15.78 39.32,28.37 60.95,29.28c2.95,0.06 5.9,0.08 8.86,0.08c1,0.01 1.99,0.02 3.02,0.03c17.15,0.04 33.29,-7.15 45.73,-18.84c13.65,-14.46 21.36,-35.02 21.08,-54.91c-0.12,-2.63 -0.12,-2.63 -1.83,-5.16c-3.39,-1.82 -5.65,-1.86 -9.44,-1.31c-3.37,3.25 -3.55,6.54 -4,11.06c-2.06,17.7 -8.26,32.96 -22.08,44.71c-13.52,9.9 -28.75,10.85 -44.92,9.23c-5.64,-0.91 -10.79,-2.7 -16,-5c-0.69,-0.3 -1.37,-0.6 -2.08,-0.91c-8.4,-3.76 -15.99,-7.96 -22.92,-14.09c-0.8,-0.67 -1.59,-1.33 -2.41,-2.02c-11.06,-9.5 -18.89,-20.17 -25.59,-32.98c-0.34,-0.62 -0.67,-1.24 -1.02,-1.88c-2.59,-4.92 -4.25,-9.82 -5.67,-15.18c-0.32,-1.15 -0.32,-1.15 -0.64,-2.32c-6.2,-22.85 -3.05,-46.94 8.33,-67.62c9.14,-15.19 21.16,-26.12 36.87,-34.25c0.63,-0.33 1.25,-0.66 1.89,-1c9.87,-4.91 20.07,-6.31 30.99,-6.25c1.13,0 2.25,0 3.42,0c10.01,0.19 18.82,1.99 27.83,6.5c3.19,0.28 5.41,0.25 8.37,-1c2.19,-2.69 2.11,-4.68 2.16,-8.06c-0.78,-2.86 -1.97,-3.46 -4.53,-4.94c-2.58,-0.98 -5.12,-1.86 -7.75,-2.69c-0.7,-0.22 -1.39,-0.45 -2.11,-0.68c-1.71,-0.55 -3.43,-1.09 -5.14,-1.63c0,-5.82 3.12,-7.94 7,-12c0.59,-0.65 1.18,-1.31 1.79,-1.98c5.68,-6.05 12.3,-10.52 19.21,-15.02c0.85,-0.57 1.69,-1.14 2.57,-1.73c6.71,-4.31 13.86,-6.83 21.43,-9.27c1.4,-0.47 1.4,-0.47 2.84,-0.94c24.9,-7.93 55.32,-4.51 78.16,7.94z" fill="#FCFCFC" id="svg_2"/>
  <path d="m562.25,424.81c1.83,-0.02 1.83,-0.02 3.7,-0.04c29.46,-0.04 55.52,11.46 77.05,31.23c0.8,0.72 1.6,1.43 2.43,2.17c11.78,11.12 21.36,25.49 26.52,40.83c0.91,2.6 1.93,5.1 3,7.64c2.17,5.42 3.54,10.84 4.74,16.55c0.21,0.9 0.42,1.81 0.64,2.74c3.67,17.31 2.73,35.52 2.85,53.13c0,1.35 0,1.35 0.01,2.72c0.02,2.77 0.04,5.55 0.06,8.32c0,0.93 0.01,1.85 0.02,2.81c0.02,4.75 0.05,9.5 0.06,14.26c0.01,4.67 0.04,9.35 0.08,14.02c0.01,1.76 0.01,3.51 0.01,5.26c-0.01,14.4 0.73,30.95 10.27,42.61c3.78,1.53 7.48,1.23 11.31,-0.06c2.49,-1.62 4.17,-2.74 6,-5c0.58,-3.1 0.78,-5.42 0.71,-8.51c0.01,-1.26 0.01,-1.26 0.01,-2.55c0.01,-2.79 -0.02,-5.58 -0.06,-8.36c0.01,-1.95 0.01,-3.89 0.02,-5.84c0.01,-5.12 -0.01,-10.24 -0.04,-15.35c-0.04,-8.18 -0.06,-16.36 -0.04,-24.54c0,-2.85 -0.02,-5.7 -0.05,-8.54c0,-1.77 0,-3.53 0,-5.29c-0.02,-1.18 -0.02,-1.18 -0.04,-2.37c0.04,-6.8 2.05,-12.75 6.45,-17.99c0.66,-0.53 1.31,-1.06 1.98,-1.6c0.65,-0.55 1.29,-1.09 1.96,-1.65c5.08,-3.41 9.69,-3.69 15.68,-3.61c1.22,0.01 1.22,0.01 2.47,0.01c2.59,0.01 5.17,0.04 7.76,0.06c1.76,0.01 3.52,0.02 5.28,0.03c4.3,0.02 8.61,0.06 12.91,0.1c-0.02,-1.1 -0.03,-2.2 -0.05,-3.34c0.09,-6.22 2.81,-11.11 6.88,-15.75c7.82,-7.29 14.94,-8.55 25.53,-8.33c7.47,0.86 12.87,4.72 17.64,10.42c3.23,4.18 5.03,7.34 5.56,12.65c0.09,0.81 0.17,1.63 0.26,2.46c0.09,0.94 0.09,0.94 0.18,1.89c1.11,-0.02 2.22,-0.04 3.36,-0.07c4.15,-0.07 8.29,-0.11 12.44,-0.15c1.78,-0.02 3.57,-0.05 5.36,-0.08c2.58,-0.05 5.16,-0.08 7.75,-0.09c1.18,-0.03 1.18,-0.03 2.39,-0.07c6.72,0 11.77,2.03 16.94,6.32c0.54,0.62 1.08,1.24 1.64,1.89c0.83,0.92 0.83,0.92 1.67,1.86c4.26,7.04 3.75,15.24 3.74,23.19c0.01,1.9 0.01,1.9 0.02,3.84c0.02,3.45 0.02,6.91 0.02,10.36c0.01,2.16 0.01,4.32 0.02,6.48c0.01,7.55 0.02,15.1 0.02,22.65c0,7.02 0.02,14.04 0.05,21.06c0.03,6.05 0.04,12.09 0.04,18.14c0,3.6 0,7.2 0.02,10.81c0.03,4.01 0.02,8.03 0.01,12.05c0.01,1.18 0.02,2.37 0.03,3.59c-0.07,8.56 -2.01,13.49 -6.71,20.47c-5.27,5.15 -12.46,7.87 -19.81,7.88c-1.54,0.01 -1.54,0.01 -3.12,0.01c-1.7,0 -1.7,0 -3.43,0c-1.19,0.01 -2.39,0.01 -3.61,0.01c-3.28,0.01 -6.55,0.01 -9.82,0.01c-2.04,0.01 -4.08,0.01 -6.13,0.01c-7.13,0.01 -14.26,0.01 -21.39,0.01c-6.65,0 -13.29,0.01 -19.94,0.03c-5.71,0.01 -11.41,0.02 -17.12,0.02c-3.41,0 -6.82,0 -10.22,0.01c-3.81,0.01 -7.61,0.01 -11.41,0c-1.13,0.01 -2.25,0.01 -3.42,0.02c-1.55,-0.01 -1.55,-0.01 -3.14,-0.02c-0.9,0.01 -1.8,0.01 -2.72,0.01c-2.81,-0.28 -4.95,-1.15 -7.53,-2.25c-3.97,0.28 -7.18,2.79 -10.5,4.81c-17.89,10.56 -38.23,11.76 -58.17,6.79c-3.32,-0.9 -6.29,-2.02 -9.33,-3.6c0.01,1.09 0.02,2.19 0.03,3.32c0.11,10.34 0.18,20.68 0.23,31.02c0.03,5.32 0.06,10.64 0.12,15.95c0.05,5.14 0.08,10.27 0.09,15.41c0.01,1.95 0.03,3.91 0.06,5.86c0.27,20.35 0.27,20.35 -7.04,28.03c-3.96,3.6 -7.34,4.52 -12.54,4.55c-0.79,0.01 -1.59,0.02 -2.41,0.03c-0.86,0 -1.73,0 -2.62,0c-0.92,0.01 -1.83,0.02 -2.78,0.02c-3.03,0.02 -6.07,0.04 -9.1,0.05c-1.56,0 -1.56,0 -3.14,0.01c-5.49,0.02 -10.97,0.03 -16.46,0.04c-5.67,0.01 -11.33,0.05 -17,0.09c-4.35,0.02 -8.71,0.03 -13.07,0.04c-2.09,0 -4.18,0.01 -6.26,0.03c-2.93,0.03 -5.85,0.02 -8.77,0.02c-1.29,0.02 -1.29,0.02 -2.61,0.04c-5.39,-0.05 -8.47,-0.91 -12.73,-4.51c-3.26,-4.32 -5.1,-7.68 -5.14,-13.1c-0.19,-9.32 -0.34,-17.01 -5.86,-24.9c-0.56,-0.91 -1.11,-1.82 -1.69,-2.75c-6.37,-6.2 -14.64,-10.52 -23.56,-10.63c-6.15,0.11 -10.52,1.19 -15.75,4.38c-0.7,0.41 -1.4,0.82 -2.12,1.25c-6.25,4.15 -10.82,10.16 -12.53,17.54c-0.34,3.12 -0.44,6.19 -0.49,9.32c-0.16,7.12 -0.66,12.37 -5.09,18.22c-5.49,5.17 -10.28,5.11 -17.49,5.09c-1.08,0.01 -2.16,0.01 -3.28,0.02c-3.57,0.03 -7.14,0.03 -10.71,0.03c-2.48,0 -4.97,0.01 -7.45,0.02c-5.21,0.01 -10.42,0.01 -15.63,0.01c-6.67,-0.01 -13.33,0.02 -20,0.06c-5.14,0.03 -10.27,0.03 -15.4,0.03c-2.46,0 -4.92,0.01 -7.38,0.03c-3.44,0.02 -6.88,0.01 -10.32,-0.01c-1.01,0.02 -2.02,0.03 -3.06,0.04c-6.59,-0.08 -10.94,-1.41 -16.05,-5.65c-1.84,-2.1 -1.84,-2.1 -2.94,-4.06c-0.38,-0.66 -0.76,-1.31 -1.15,-1.98c-2.13,-4.6 -2.06,-9.11 -2.07,-14.11c-0.01,-0.82 -0.01,-1.64 -0.02,-2.49c-0.01,-2.72 -0.02,-5.44 -0.02,-8.17c-0.01,-0.94 -0.01,-1.88 -0.01,-2.85c-0.02,-5.01 -0.03,-10.01 -0.03,-15.02c0,-4.09 -4.43,41.36 -0.04,-12.25c4.39,-53.61 5.39,-102.61 33,-143.82c27.61,-41.21 0.97,-0.91 1.47,-1.38c2.06,-2.61 2.06,-2.61 1.58,-4.97c-0.51,-1.82 -1.07,-3.62 -1.66,-5.41c-9.39,-29.51 -5.7,-58.01 8.26,-85.3c3.31,-5.94 7.2,-11.06 11.63,-16.19c0.56,-0.7 1.13,-1.4 1.71,-2.12c13.12,-15.86 34.76,-28.07 55.29,-30.88c6,-0.31 12,-0.18 18,0c0.4,-1.11 0.4,-1.11 0.82,-2.25c9.24,-21.5 34.62,-37.41 55.05,-46.5c5,-1.97 10.1,-3.52 15.25,-5c0.73,-0.21 1.46,-0.42 2.21,-0.64c10.19,-2.79 20.42,-2.79 30.92,-2.8zm-82.04,51.61c-2.14,2.5 -3.22,4.46 -4.21,7.58c1.11,0.41 2.23,0.82 3.37,1.25c1.55,0.58 3.09,1.16 4.63,1.75c0.89,0.33 1.77,0.67 2.69,1.02c0.88,0.34 1.77,0.69 2.68,1.04c0.84,0.32 1.67,0.64 2.53,0.97c2.1,0.97 2.1,0.97 4.1,2.97c0.68,7.16 0.68,7.16 -1.63,10c-3.88,1.63 -6.71,1.59 -10.7,0.17c-1.65,-0.68 -3.29,-1.38 -4.91,-2.1c-15.16,-5.89 -35.84,-5.49 -50.76,0.93c-0.96,0.41 -0.96,0.41 -1.94,0.83c-9.47,4.13 -17.42,9.13 -25.06,16.17c-0.62,0.52 -1.24,1.05 -1.88,1.6c-14.29,12.93 -24.02,34.76 -25.28,53.81c-0.52,11.55 0.14,22.38 3.16,33.59c0.26,0.98 0.51,1.97 0.77,2.99c7.18,24.31 24.91,46.8 47,59.18c3.99,2.14 8.07,4.03 12.23,5.83c0.62,0.27 1.25,0.55 1.89,0.83c14.03,5.92 31.4,6.86 45.92,2.17c16.29,-7.04 25.72,-18.96 32.19,-35c2.29,-7.13 3.32,-14.19 3.59,-21.66c0.5,-2.87 1.38,-4.27 3.41,-6.34c3.79,-0.55 6.05,-0.51 9.44,1.31c4.07,7 1.35,16.49 -0.4,23.94c-5.3,19.13 -14.26,35.98 -32.04,46.19c-11.64,6.38 -22.02,8.74 -35.19,8.75c-0.98,0.01 -1.95,0.02 -2.96,0.03c-26.71,0.06 -51.23,-13.64 -69.98,-31.91c-5.54,-5.55 -10.1,-11.75 -14.59,-18.16c-1.7,-2.34 -3.23,-4.18 -5.28,-6.15c-23.85,30.34 -28.33,72.26 -28.3,109.52c0,2.01 -0.01,4.01 -0.01,6.02c-0.01,4.16 -0.01,8.32 -0.01,12.48c0.01,5.33 -0.01,10.66 -0.03,15.99c-0.01,4.12 -0.02,8.24 -0.01,12.36c0,1.97 -0.01,3.93 -0.02,5.9c-0.01,2.74 0,5.47 0.01,8.21c-0.01,0.8 -0.02,1.61 -0.03,2.44c0.03,3.06 0.26,5.7 1.32,8.58c3.55,2.55 7.43,2.03 11.68,1.97c1.47,0 1.47,0 2.98,0c3.26,0.01 6.51,-0.02 9.77,-0.05c2.26,0 4.52,0 6.77,-0.01c4.74,0 9.47,-0.02 14.2,-0.06c6.08,-0.04 12.17,-0.05 18.25,-0.06c5.78,-0.01 11.56,-0.03 17.34,-0.05c1.67,-0.01 1.67,-0.01 3.37,-0.01c3.13,-0.02 6.26,-0.03 9.38,-0.06c1.41,0 1.41,0 2.84,0c4.07,0.37 4.07,0.37 7.5,-1.17c0.1,-1.71 0.18,-3.41 0.24,-5.12c0.53,-15.31 4.71,-27.36 15.95,-38.13c11.86,-10.05 24.11,-11.89 39.1,-11.06c11.13,1.26 21.61,7.83 28.71,16.31c6.35,9.21 9.15,17.28 10.06,28.31c0.16,1.81 0.31,3.62 0.48,5.43c0.09,1.19 0.09,1.19 0.19,2.4c0.08,1.87 0.08,1.87 1.27,2.86c2.63,0.11 5.24,0.15 7.87,0.16c0.82,0 1.65,0.01 2.5,0.01c2.74,0.02 5.48,0.03 8.22,0.03c1.89,0.01 3.79,0.01 5.69,0.02c3.98,0.01 7.96,0.01 11.95,0.02c5.11,0 10.22,0.03 15.33,0.06c3.92,0.01 7.84,0.02 11.76,0.02c1.88,0 3.77,0.01 5.65,0.03c2.64,0.01 5.27,0.01 7.9,0c0.79,0.01 1.57,0.02 2.37,0.03c3.99,0.05 3.99,0.05 7.46,-1.66c2.32,-3.07 1.8,-6.98 1.83,-10.7c0.03,-1.38 0.03,-1.38 0.06,-2.79c0.06,-3.04 0.09,-6.09 0.12,-9.14c0.02,-1.04 0.03,-2.08 0.04,-3.16c0.06,-5.52 0.11,-11.05 0.14,-16.57c0.03,-5.69 0.13,-11.38 0.25,-17.06c0.08,-4.39 0.1,-8.78 0.12,-13.17c0.01,-2.09 0.04,-4.19 0.1,-6.28c0.71,-12 0.71,-12 -4.01,-22.53c-2.86,-2.84 -6.04,-5.04 -9.35,-7.32c-7.6,-7.93 -12.18,-17.85 -16,-28c-0.41,-1.01 -0.83,-2.01 -1.25,-3.05c-2.2,-5.54 -3.5,-9.98 -2.75,-15.95c1.06,-2 1.06,-2 3,-3c4.37,-0.39 6.31,-0.47 10,2c0.77,1.7 0.77,1.7 1.38,3.81c4.67,15.06 10.53,26.87 21.62,38.19c0.59,0.63 1.18,1.25 1.79,1.9c4.23,4.11 8.99,6.76 14.21,9.41c0.66,0.34 1.33,0.68 2.01,1.02c12.96,6.3 30.01,7.39 43.76,2.92c13.05,-4.97 24.88,-14.06 31.79,-26.38c1.83,-4.18 2.11,-7.35 1.44,-11.87c-3.06,-3.79 -5.25,-5.75 -10.06,-6.44c-4.76,0.53 -7,2.24 -10.82,4.97c-5.48,3.8 -11.64,4.43 -18.12,3.47c-3.53,-1.36 -6.73,-3.11 -10,-5c-0.73,-0.35 -1.46,-0.69 -2.22,-1.05c-2.35,-1.26 -2.78,-2.52 -3.78,-4.95c-0.37,-0.75 -0.74,-1.49 -1.12,-2.25c-0.29,-0.58 -0.58,-1.16 -0.88,-1.75c-0.66,0 -1.32,0 -2,0c-0.12,-0.67 -0.25,-1.35 -0.37,-2.04c-0.46,-2.15 -1,-4.28 -1.58,-6.4c-3.25,-11.85 -3.62,-23.14 -3.59,-35.37c-0.01,-2.06 -0.02,-4.13 -0.03,-6.19c-0.04,-5.39 -0.05,-10.77 -0.05,-16.16c-0.01,-8.61 -0.05,-17.23 -0.09,-25.84c-0.02,-2.97 -0.02,-5.94 -0.01,-8.91c-0.04,-17.28 -0.64,-35.43 -6.5,-51.85c-0.83,-2.39 -1.53,-4.8 -2.22,-7.24c-7.47,-24.92 -25.11,-45.42 -47.56,-58c-0.82,-0.47 -1.64,-0.95 -2.48,-1.43c-14.81,-8 -31.26,-10.93 -47.9,-10.82c-1.23,-0.01 -2.47,-0.02 -3.75,-0.03c-31.21,0.07 -55.89,14.34 -77.66,35.7z" fill="#070606" id="svg_3"/>
  <path d="m747.68,572.54c1.75,-0.03 3.49,-0.07 5.24,-0.12c2.52,-0.08 5.04,-0.12 7.56,-0.14c1.17,-0.05 1.17,-0.05 2.36,-0.1c5.35,0.02 5.35,0.02 7.72,2.37c1.33,1.89 1.33,1.89 2.43,3.77c1.33,2.22 2.9,3.29 5.13,4.55c0.66,0.39 1.33,0.78 2.01,1.18c6.48,3.29 14.92,2.95 21.83,1.2c4.56,-1.75 8.55,-3.77 12.04,-7.25c0.36,-0.85 0.72,-1.71 1.1,-2.59c1.9,-2.41 1.9,-2.41 5.65,-3.04c1.56,-0.03 3.12,-0.02 4.68,0c1.24,0 1.24,0 2.5,-0.01c1.75,0 3.5,0.02 5.25,0.04c2.67,0.04 5.34,0.02 8.01,0c1.71,0.01 3.41,0.02 5.11,0.03c0.8,0 1.59,-0.01 2.41,-0.01c3.9,0.08 5.87,0.32 9.27,2.43c3.05,3.25 3.14,5.93 3.16,10.22c0.01,1.57 0.01,1.57 0.02,3.17c0.01,1.15 0.01,2.3 0.01,3.48c0.01,1.21 0.02,2.42 0.02,3.67c0.02,4.01 0.03,8.02 0.04,12.04c0.01,1.38 0.01,2.76 0.02,4.14c0.02,6.5 0.03,13 0.04,19.49c0.01,7.5 0.03,14.99 0.07,22.48c0.03,5.8 0.05,11.59 0.05,17.39c0.01,3.46 0.01,6.92 0.04,10.38c0.03,3.86 0.02,7.72 0.02,11.58c0.01,1.14 0.02,2.29 0.03,3.46c-0.04,6.14 -0.22,10.07 -4.5,14.65c-2.91,0.97 -4.74,1.12 -7.77,1.12c-0.98,0 -1.96,0 -2.97,0c-1.61,0 -1.61,0 -3.25,-0.01c-1.14,0 -2.27,0 -3.43,0c-3.75,0 -7.5,0 -11.25,-0.01c-2.6,0 -5.2,-0.01 -7.79,-0.01c-6.14,0 -12.28,-0.01 -18.42,-0.02c-7,-0.01 -13.99,-0.01 -20.98,-0.02c-14.38,-0.01 -28.76,-0.03 -43.14,-0.05c0.41,-0.68 0.82,-1.35 1.24,-2.05c0.81,-1.34 0.81,-1.34 1.64,-2.71c0.53,-0.88 1.07,-1.76 1.62,-2.67c4.64,-7.96 6.18,-16.01 3.84,-25.13c-3.03,-7.74 -8.3,-11.54 -15.59,-15.11c-0.89,-0.44 -1.78,-0.88 -2.7,-1.33c-0.68,-0.33 -1.36,-0.66 -2.05,-1c-0.1,-10.74 -0.17,-21.47 -0.21,-32.21c-0.02,-4.98 -0.05,-9.97 -0.1,-14.95c-0.04,-4.81 -0.06,-9.62 -0.07,-14.43c-0.01,-1.84 -0.03,-3.68 -0.05,-5.51c-0.03,-2.57 -0.03,-5.14 -0.03,-7.71c-0.02,-1.14 -0.02,-1.14 -0.04,-2.3c0.03,-3.68 0.38,-5.71 2.4,-8.84c5.02,-4.91 13.13,-3.43 19.78,-3.51z" fill="#F9F9F9" id="svg_4"/>
  <path d="m761.55,639.5c1.13,-0.01 1.13,-0.01 2.29,-0.02c2.49,-0.01 4.98,0.01 7.47,0.03c1.74,0 3.47,-0.01 5.2,-0.01c3.63,0 7.26,0.01 10.9,0.04c4.65,0.02 9.3,0.02 13.96,0.01c3.58,-0.01 7.16,0 10.74,0.01c1.71,0.01 3.43,0.01 5.14,0c2.4,0 4.8,0.02 7.2,0.04c0.71,-0.01 1.42,-0.01 2.15,-0.02c4.06,0.07 6.49,0.49 9.4,3.42c0.78,1.87 0.78,1.87 1.06,3.88c0.12,0.65 0.23,1.31 0.35,1.99c-0.68,3.52 -2.68,4.91 -5.41,7.13c-2.76,0.49 -4.91,0.68 -7.67,0.63c-0.75,0.01 -1.51,0.02 -2.28,0.02c-2.49,0.02 -4.97,0 -7.46,-0.02c-1.73,0 -3.47,0 -5.2,0.01c-3.62,0 -7.25,-0.01 -10.87,-0.04c-4.65,-0.04 -9.3,-0.03 -13.94,-0.01c-3.58,0.01 -7.15,0 -10.73,-0.01c-1.71,-0.01 -3.42,-0.01 -5.14,0c-2.39,0 -4.78,-0.02 -7.18,-0.04c-0.7,0 -1.41,0.01 -2.14,0.01c-3.4,-0.06 -5.12,-0.33 -7.83,-2.46c-1.69,-2.27 -2.1,-3.29 -2.06,-6.09c-0.02,-0.99 -0.02,-0.99 -0.03,-2c1.64,-6.19 6.52,-6.58 12.08,-6.5z" fill="#080808" id="svg_13"/>
  <path d="m760.53,610.63c0.76,0 1.53,-0.01 2.32,-0.01c2.53,-0.01 5.06,0 7.58,0.02c1.76,0 3.52,0 5.28,0c3.68,0 7.37,0.01 11.05,0.03c4.72,0.02 9.44,0.02 14.17,0.01c3.63,0 7.26,0.01 10.89,0.02c1.74,0 3.48,0 5.22,0c2.43,0 4.87,0.01 7.3,0.03c1.08,-0.01 1.08,-0.01 2.18,-0.01c3.63,0.04 6.46,0.17 9.48,2.28c1.43,2.86 1.31,4.84 1,8c-1.53,2.66 -1.53,2.66 -4,5c-2.79,0.5 -4.97,0.68 -7.75,0.63c-1.16,0.01 -1.16,0.01 -2.35,0.03c-2.56,0.01 -5.12,-0.01 -7.68,-0.03c-1.78,0 -3.57,0 -5.35,0.01c-3.73,0 -7.46,-0.01 -11.19,-0.04c-4.78,-0.03 -9.56,-0.03 -14.35,-0.01c-3.67,0.01 -7.35,0 -11.03,-0.01c-1.76,-0.01 -3.52,-0.01 -5.29,0c-2.46,0 -4.92,-0.02 -7.39,-0.04c-0.73,0 -1.46,0.01 -2.21,0.02c-3.28,-0.07 -4.96,-0.12 -7.36,-2.46c-1.79,-3.59 -1.43,-6.12 -1.05,-10.1c2.44,-4 6.32,-3.41 10.53,-3.37z" fill="#060605" id="svg_14"/>
  <path d="m616,563c4.29,1.8 7.87,4.82 10,9c0.95,5.03 0.57,8.84 -1.69,13.44c-3.79,4.2 -6.54,5.74 -12.19,6.12c-4.84,-0.14 -7.4,-1.51 -10.78,-4.92c-2.7,-3.31 -3.26,-5.87 -3.72,-10.08c0.59,-5.56 2.97,-8.35 7.13,-11.93c4.29,-2.15 6.49,-2.16 11.25,-1.63z" fill="#0A0909" id="svg_17"/>
  <path d="m797.9,546.73c3.98,2.07 6.45,4.1 8.1,8.27c0.57,5.23 -0.18,8.57 -3,13c-3.9,3.54 -7.67,4.42 -12.93,4.35c-3.8,-0.64 -5.47,-2.56 -8.07,-5.35c-2.28,-3.94 -2.47,-7.49 -2,-12c3.78,-7.27 9.58,-11.46 17.9,-8.27z" fill="#F5F5F5" id="svg_18"/>
  <path d="m754,640c10.1,-0.09 20.2,-0.16 30.3,-0.21c4.69,-0.02 9.38,-0.05 14.07,-0.09c4.53,-0.05 9.05,-0.07 13.58,-0.08c1.73,-0.01 3.45,-0.02 5.18,-0.04c2.42,-0.03 4.84,-0.04 7.26,-0.03c0.71,-0.02 1.43,-0.03 2.16,-0.05c3.52,0.03 5.16,0.26 7.93,2.53c0.5,0.65 1,1.3 1.52,1.97c-0.66,0.66 -1.32,1.32 -2,2c-0.99,-0.66 -1.98,-1.32 -3,-2c-2.5,-0.21 -4.9,-0.31 -7.41,-0.32c-0.75,-0.01 -1.5,-0.02 -2.28,-0.03c-2.48,-0.03 -4.96,-0.05 -7.45,-0.06c-1.72,-0.02 -3.44,-0.04 -5.16,-0.06c-4.54,-0.05 -9.07,-0.09 -13.6,-0.13c-4.63,-0.04 -9.25,-0.09 -13.88,-0.14c-9.07,-0.1 -18.15,-0.18 -27.22,-0.26c0,-0.99 0,-1.98 0,-3z" fill="#212121" id="svg_19"/>
  <path d="m479,787c0.66,0.33 1.32,0.66 2,1c-2.19,3.45 -4.48,6.71 -7.06,9.88c-0.49,0.59 -0.97,1.19 -1.48,1.8c-1.46,1.32 -1.46,1.32 -4.46,1.32c1.82,-5.99 5.86,-10.57 11,-14z" fill="#E6E6E6" id="svg_22"/>
  <path d="m526.5,614.69c1.73,0.15 1.73,0.15 3.5,0.31c0.66,0.99 1.32,1.98 2,3c-0.99,0 -1.98,0 -3,0c-3.43,0.52 -5.04,1.03 -8,3c0,-5.12 0.4,-5.85 5.5,-6.31z" fill="#2B2B2B" id="svg_25"/>
  <path d="m730,574c0.66,0.33 1.32,0.66 2,1c-0.99,1.48 -0.99,1.48 -2,3c-0.3,2.59 -0.51,5.09 -0.63,7.69c-0.03,0.7 -0.07,1.4 -0.11,2.12c-0.1,1.73 -0.18,3.46 -0.26,5.19c-0.33,0 -0.66,0 -1,0c-0.25,-2.6 -0.47,-5.21 -0.69,-7.81c-0.11,-1.11 -0.11,-1.11 -0.22,-2.24c-0.42,-5.5 -0.42,-5.5 1.39,-7.96c0.5,-0.33 1,-0.65 1.52,-0.99z" fill="#E4E4E5" id="svg_28"/>
  <path d="m470,774c0.66,0.33 1.32,0.66 2,1c-2.67,2.67 -5.33,5.33 -8,8c-0.99,-0.33 -1.98,-0.66 -3,-1c2.97,-2.64 5.94,-5.28 9,-8z" fill="#171718" id="svg_31"/>
  <path d="m487,469c0.66,0.66 1.32,1.32 2,2c-1.37,1.5 -1.37,1.5 -3,3c-0.66,0 -1.32,0 -2,0c-0.33,0.99 -0.66,1.98 -1,3c-0.99,-0.33 -1.98,-0.66 -3,-1c2.31,-2.31 4.62,-4.62 7,-7z" fill="#ECECED" id="svg_32"/>
  <path d="m0,0c0,0.99 0,1.98 0,3c-2.5,2.19 -2.5,2.19 -5,4c-0.33,-1.32 -0.66,-2.64 -1,-4c1.98,-0.99 3.96,-1.98 6,-3z" fill="#E9EAEA" id="svg_33" transform="translate(570,361)"/>
  <path d="m467,467c0.66,0 1.32,0 2,0c-1.29,2.88 -2.66,4.87 -5,7c-0.66,-0.33 -1.32,-0.66 -2,-1c1.62,-2.04 3.29,-4.04 5,-6z" fill="#252626" id="svg_35"/>
  <path d="m643,828c0.66,0.99 1.32,1.98 2,3c-1.32,0.99 -2.64,1.98 -4,3c-0.66,-0.33 -1.32,-0.66 -2,-1c0,-0.66 0,-1.32 0,-2c2,-1.62 2,-1.62 4,-3z" fill="#171717" id="svg_36"/>
 </g>
</svg>